<?xml version="1.0" encoding="UTF-8"?>
<svg id="Layer_2" data-name="Layer 2" xmlns="http://www.w3.org/2000/svg" viewBox="0 0 1091.78 158.73">
  <defs>
    <style>
      .cls-1 {
        letter-spacing: -.02em;
      }

      .cls-2 {
        fill: #fff;
      }

      .cls-3 {
        letter-spacing: 0em;
      }

      .cls-4 {
        letter-spacing: 0em;
      }

      .cls-5 {
        letter-spacing: 0em;
      }

      .cls-6 {
        letter-spacing: -.04em;
      }

      .cls-7 {
        letter-spacing: -.01em;
      }

      .cls-8 {
        fill: #2aff2a;
        font-family: Tanker-Regular, Tanker;
        font-size: 130px;
      }
    </style>
  </defs>
  <g id="Layer_1-2" data-name="Layer 1">
    <g id="Title">
      <g>
        <text class="cls-8" transform="translate(33.71 113.75)"><tspan x="0" y="0">Cre</tspan><tspan class="cls-6" x="168.22" y="0">a</tspan><tspan class="cls-7" x="221.26" y="0">t</tspan><tspan x="268.19" y="0">e a </tspan><tspan class="cls-4" x="420.41" y="0">n</tspan><tspan x="484.76" y="0">ew </tspan><tspan class="cls-3" x="644.92" y="0">a</tspan><tspan x="702.51" y="0">cco</tspan><tspan class="cls-5" x="875.41" y="0">u</tspan><tspan class="cls-1" x="936.12" y="0">n</tspan><tspan x="997.86" y="0">t</tspan></text>
        <path d="M1075.51,8.25h-38.74c-2.66,0-4.95.51-6.82,1.47-1.88-.96-4.16-1.47-6.82-1.47h-7.28c-4.38,0-7.74,1.36-9.93,3.88-.36.31-.69.64-1,1-.36.31-.69.64-1,1-.36.31-.69.64-1,1-.36.31-.69.64-1,1-.36.31-.69.64-1,1-.26.22-.5.45-.73.7-.25-.66-.42-1.11-.42-1.12-3.31-8.47-10.32-8.47-13.69-8.47h-5.85c-4.38,0-7.75,1.36-9.93,3.88-.18.16-.37.31-.54.48-2.16-2.83-5.67-4.36-10.33-4.36h-8.32c-4.37,0-7.73,1.35-9.92,3.86-.36.31-.69.64-1,1-.36.31-.69.64-1,1-.17.15-.33.3-.49.46-1.91-4.08-5.88-6.32-11.51-6.32h-8.32c-4.38,0-7.75,1.36-9.93,3.88-.36.31-.69.64-1,1-.36.31-.69.64-1,1-.36.31-.69.64-1,1-.32.28-.62.57-.9.89-4.9-5.52-12.77-9.07-25.3-9.07s-19.94,3.35-24.87,8.6c-.35.33-.68.66-1,1-.35.33-.68.66-1,1-.35.33-.68.66-1,1-.35.33-.68.66-1,1-.05.05-.11.1-.16.15-4.42-7.57-12.72-12.76-28.04-12.76-12.38,0-20.2,3.34-25.12,8.57-.35.32-.68.66-1,1-.35.32-.68.66-1,1-.35.32-.68.66-1,1-.35.32-.68.66-1,1,0,0-.01.01-.02.02-4.45-7.47-12.73-12.59-27.93-12.59-12.38,0-20.2,3.34-25.12,8.57-.35.32-.68.66-1,1-.35.32-.68.66-1,1-.35.32-.68.66-1,1-.35.32-.68.66-1,1-.35.32-.68.66-1,1-.35.32-.68.66-1,1-.35.32-.68.66-1,1-.35.32-.68.66-1,1-.02.02-.05.05-.08.07l-.22-1.65c-1.23-9.08-6.69-13.69-16.25-13.69h-16.38c-5.55,0-9.71,1.57-12.48,4.66-.35.31-.68.65-1,1-.35.31-.68.65-1,1-.35.31-.68.65-1,1-.35.31-.68.65-1,1-.35.31-.68.65-1,1-.35.31-.68.65-1,1-.35.31-.68.65-1,1-.35.31-.68.65-1,1-.35.31-.68.65-1,1-.35.31-.68.65-1,1-.35.31-.68.65-1,1-.35.31-.68.65-1,1-.35.31-.68.65-1,1-.35.31-.68.65-1,1-.35.31-.68.65-1,1-.35.31-.68.65-1,1-.35.31-.68.65-1,1-.35.31-.68.65-1,1-.35.31-.68.65-1,1-.35.31-.68.65-1,1-.35.31-.68.65-1,1-.35.31-.68.65-1,1-.35.31-.68.65-1,1-.35.31-.68.65-1,1-.35.31-.68.65-1,1-.11.1-.22.2-.32.31l1.44-16.4c.4-4.04-.51-7.33-2.73-9.79-3.05-3.39-7.2-3.78-10.05-3.78h-9.62c-4.34,0-7.59,1.24-9.74,3.71-.36.31-.69.64-1,1-.36.31-.69.64-1,1-.36.31-.69.64-1,1-.02.02-.04.04-.07.06-2.07-4.4-6.19-6.77-12.03-6.77h-5.2c-4.51,0-8,1.41-10.31,4.07-.35.31-.69.64-1,1-.35.31-.69.64-1,1-.3.27-.59.55-.86.85-1.82-4.59-5.72-6.92-11.66-6.92h-9.62c-2.05,0-4.76.21-7.26,1.58-1.92-1.03-4.27-1.58-7.03-1.58h-33.15c-4.38,0-7.75,1.36-9.93,3.88-.32.28-.62.57-.9.89-2.13-3.09-5.74-4.77-10.62-4.77h-7.28c-4.38,0-7.75,1.36-9.93,3.88-.36.31-.69.64-1,1-.36.31-.69.64-1,1-.36.31-.69.64-1,1-.36.31-.69.64-1,1-.36.31-.69.64-1,1-.26.22-.5.45-.73.7-.25-.66-.42-1.11-.42-1.12-3.31-8.47-10.32-8.47-13.69-8.47h-5.85c-4.38,0-7.75,1.36-9.93,3.88-.36.31-.69.64-1,1-.36.31-.69.64-1,1-.36.31-.69.64-1,1-.36.31-.69.64-1,1-.36.31-.69.64-1,1-.36.31-.69.64-1,1-.36.31-.69.64-1,1-.36.31-.69.64-1,1-.36.31-.69.64-1,1-.36.31-.69.64-1,1-.36.31-.69.64-1,1-.36.31-.69.64-1,1-.36.31-.69.64-1,1-.36.31-.69.64-1,1-.36.31-.69.64-1,1-.36.31-.69.64-1,1-.36.31-.69.64-1,1-.36.31-.69.64-1,1-.36.31-.69.64-1,1-.36.31-.69.64-1,1-.36.31-.69.64-1,1-.36.31-.69.64-1,1-.36.31-.69.64-1,1-.36.31-.69.64-1,1-.22.19-.43.38-.63.59l-1.97-14.78c-1.23-9.08-6.69-13.69-16.25-13.69h-16.38c-5.55,0-9.71,1.57-12.48,4.66-.35.31-.68.65-1,1-.35.31-.68.65-1,1-.35.31-.68.65-1,1-.35.31-.68.65-1,1-.35.31-.68.65-1,1-.35.31-.68.65-1,1-.35.31-.68.65-1,1-.35.31-.68.65-1,1-.35.31-.68.65-1,1-.35.31-.68.65-1,1-.35.31-.68.65-1,1-.35.31-.68.65-1,1-.35.31-.68.65-1,1-.35.31-.68.65-1,1-.35.31-.68.65-1,1-.35.31-.68.65-1,1-.35.31-.68.65-1,1-.35.31-.68.65-1,1-.35.31-.68.65-1,1-.35.31-.68.65-1,1-.35.31-.68.65-1,1-.35.31-.68.65-1,1-.35.31-.68.65-1,1-.35.31-.68.65-1,1-.35.31-.68.65-1,1-.35.31-.68.65-1,1-.35.31-.68.65-1,1-.35.31-.68.65-1,1-.35.31-.68.65-1,1-1.5,1.33-2.67,3.03-3.5,5.08-.77-.36-1.62-.65-2.52-.86.18-.18.34-.37.51-.56.36-.31.69-.64,1-1,.36-.31.69-.64,1-1,.36-.31.69-.64,1-1,.36-.31.69-.64,1-1,.36-.31.69-.64,1-1,.36-.31.69-.64,1-1,2.52-2.18,3.88-5.55,3.88-9.93v-8.58c0-8.14-4.67-12.81-12.81-12.81h-33.15c-2.6,0-4.84.48-6.69,1.39-1.85-.91-4.09-1.39-6.69-1.39h-38.74c-4.17,0-7.42,1.23-9.6,3.51-2.72-2.33-6.5-3.51-11.33-3.51h-16.38c-5.55,0-9.71,1.57-12.48,4.66-.35.31-.68.65-1,1-.35.31-.68.65-1,1-.35.31-.68.65-1,1-.25.23-.51.45-.74.7-1.46-5.36-5.74-8.35-12.25-8.35h-33.15c-4.38,0-7.75,1.36-9.93,3.88-.36.31-.69.64-1,1-.36.31-.69.64-1,1-.36.31-.69.64-1,1-.36.31-.69.64-1,1-.25.22-.49.44-.72.68-6.13-5.69-15.55-8.57-28.25-8.57h-17.16c-4.38,0-7.75,1.36-9.93,3.88-.36.31-.69.64-1,1-.36.31-.69.64-1,1-.36.31-.69.64-1,1-.11.1-.22.19-.33.29-4.88-5.17-12.62-8.47-24.83-8.47s-20.2,3.34-25.12,8.57c-.35.32-.68.66-1,1-.35.32-.68.66-1,1-.35.32-.68.66-1,1-.35.32-.68.66-1,1-.35.32-.68.66-1,1-.35.32-.68.66-1,1-.35.32-.68.66-1,1-.35.32-.68.66-1,1-.35.32-.68.66-1,1-.35.32-.68.66-1,1-.35.32-.68.66-1,1-.35.32-.68.66-1,1-.35.32-.68.66-1,1-.35.32-.68.66-1,1-.35.32-.68.66-1,1-.35.32-.68.66-1,1-.35.32-.68.66-1,1-.35.32-.68.66-1,1-.35.32-.68.66-1,1-.35.32-.68.66-1,1-.35.32-.68.66-1,1-.35.32-.68.66-1,1-.35.32-.68.66-1,1-.35.32-.68.66-1,1-.35.32-.68.66-1,1-.35.32-.68.66-1,1-.35.32-.68.66-1,1-.35.32-.68.66-1,1-.35.32-.68.66-1,1C1.44,51.58,0,62.63,0,73.55v42.9c0,18.1,3.93,36.6,33.09,36.6,12.24,0,19.99-3.32,24.87-8.51.35-.32.68-.66,1-1,0,0,0,0,.01,0,1.49,5.28,5.75,8.22,12.21,8.22h8.32c4.4,0,7.77-1.36,9.96-3.9.36-.31.69-.64,1-1,.36-.31.69-.64,1-1,.36-.31.69-.64,1-1,.36-.31.69-.64,1-1,.02-.02.04-.04.07-.05,2.21,5.56,6.05,7.95,12.63,7.95h9.49c3.43,0,5.87-.95,7.58-2.18,2.07,1.42,4.76,2.18,8.01,2.18h33.15c2.49,0,4.65-.44,6.45-1.28,2.62,1.27,5.3,1.28,6.55,1.28h8.97c4.51,0,7.85-1.27,10.09-3.83.36-.31.69-.64,1-1,.36-.31.69-.64,1-1,.36-.31.69-.64,1-1,.36-.31.69-.64,1-1,.36-.31.69-.64,1-1,.36-.31.69-.64,1-1,.11-.09.21-.19.31-.29,1.42,6.81,5.67,10.13,12.98,10.13h8.97c1.79,0,6.53,0,9.81-3.77.01-.01.02-.03.03-.04.18-.16.36-.32.53-.5,2.16,2.8,5.67,4.31,10.29,4.31h8.32c4.38,0,7.75-1.36,9.93-3.88.36-.31.69-.64,1-1,.36-.31.69-.64,1-1,.36-.31.69-.64,1-1,.36-.31.69-.64,1-1,.36-.31.69-.64,1-1,.36-.31.69-.64,1-1,.02-.02.05-.04.07-.07,1,6.36,5.46,9.95,12.6,9.95h33.15c4.38,0,7.75-1.36,9.93-3.88.36-.31.69-.64,1-1,.36-.31.69-.64,1-1,.36-.31.69-.64,1-1,.36-.31.69-.64,1-1,.36-.31.69-.64,1-1,.36-.31.69-.64,1-1,.36-.31.69-.64,1-1,.36-.31.69-.64,1-1,.36-.31.69-.64,1-1,.36-.31.69-.64,1-1,.36-.31.69-.64,1-1,.36-.31.69-.64,1-1,.22-.19.44-.39.65-.6l-.34,2.58c-.22,1.58-.88,6.37,2.4,10.13,3.28,3.77,8.03,3.77,9.81,3.77h8.97c4.51,0,7.85-1.27,10.09-3.83.36-.31.69-.64,1-1,.36-.31.69-.64,1-1,.36-.31.69-.64,1-1,.36-.31.69-.64,1-1,.36-.31.69-.64,1-1,.36-.31.69-.64,1-1,.11-.09.21-.19.31-.29,1.42,6.81,5.67,10.13,12.98,10.13h8.97c1.79,0,6.53,0,9.81-3.77.01-.01.02-.03.03-.04.33-.29.66-.6.97-.96.01-.01.02-.03.03-.04.33-.29.66-.6.97-.96.01-.01.02-.03.03-.04.33-.29.66-.6.97-.96.01-.01.02-.03.03-.04.33-.29.66-.6.97-.96.01-.01.02-.03.03-.04.33-.29.66-.6.97-.96.01-.01.02-.03.03-.04.33-.29.66-.6.97-.96.01-.01.02-.03.03-.04.33-.29.66-.6.97-.96.01-.01.02-.03.03-.04.33-.29.66-.6.97-.96.01-.01.02-.03.03-.04.33-.29.66-.6.97-.96.01-.01.02-.03.03-.04.33-.29.66-.6.97-.96.01-.01.02-.03.03-.04.33-.29.66-.6.97-.96.01-.01.02-.03.03-.04.33-.29.66-.6.97-.96.01-.01.02-.03.03-.04.33-.29.66-.6.97-.96.01-.01.02-.03.03-.04.33-.29.66-.6.97-.96.01-.01.02-.03.03-.04.22-.19.44-.4.65-.62v5.63c0,8.14,4.67,12.81,12.81,12.81h7.15c4.38,0,7.75-1.36,9.93-3.88.36-.31.69-.64,1-1,.36-.31.69-.64,1-1,.36-.31.69-.64,1-1,.36-.31.69-.64,1-1,.36-.31.69-.64,1-1,.29-.25.57-.52.82-.8l.02.04c2.5,6.76,6.69,9.64,14,9.64h5.98c4.38,0,7.75-1.36,9.93-3.88.32-.28.62-.57.9-.89,2.13,3.09,5.74,4.77,10.62,4.77h33.15c4.38,0,7.75-1.36,9.93-3.88.36-.31.69-.64,1-1,.36-.31.69-.64,1-1,.04-.03.08-.07.11-.1,2.85,4.01,7.6,5.98,14.35,5.98h11.18c5.97,0,10.32-1.57,13.22-4.81.23-.2.46-.41.67-.63,2.89,3.68,7.43,5.44,13.79,5.44h11.05c6.08,0,10.54-1.6,13.45-4.85.35-.31.68-.65,1-1,.35-.31.68-.65,1-1,.35-.31.68-.65,1-1,.35-.31.68-.65,1-1,.35-.31.68-.65,1-1,.35-.31.68-.65,1-1,.35-.31.68-.65,1-1,.35-.31.68-.65,1-1,.35-.31.68-.65,1-1,.35-.31.68-.65,1-1,.35-.31.68-.65,1-1,.35-.31.68-.65,1-1,.35-.31.68-.65,1-1,.35-.31.68-.65,1-1,.35-.31.68-.65,1-1,.35-.31.68-.65,1-1,.35-.31.68-.65,1-1,.35-.31.68-.65,1-1,.35-.31.68-.65,1-1,.35-.31.68-.65,1-1,.35-.31.68-.65,1-1,.28-.25.53-.51.79-.78l-1.69,12.73c-.22,1.58-.88,6.37,2.4,10.13,3.28,3.77,8.03,3.77,9.82,3.77h8.97c4.51,0,7.85-1.27,10.09-3.83.36-.31.69-.64,1-1,.36-.31.69-.64,1-1,.36-.31.69-.64,1-1,.36-.31.69-.64,1-1,.36-.31.69-.64,1-1,.36-.31.69-.64,1-1,.11-.09.21-.19.31-.29,1.42,6.81,5.67,10.13,12.98,10.13h8.97c1.79,0,6.53,0,9.82-3.77.01-.01.02-.03.03-.04.33-.29.66-.6.97-.96.01-.01.02-.03.03-.04.15-.13.29-.26.44-.4,4.96,4.03,12.24,6.51,22.91,6.51,12.24,0,19.99-3.32,24.87-8.51.35-.32.68-.66,1-1,.35-.32.68-.66,1-1,.35-.32.68-.66,1-1,.35-.32.68-.66,1-1,.02-.02.04-.04.06-.05,4.48,7.46,12.83,12.57,28.14,12.57,12.24,0,19.99-3.32,24.87-8.51.35-.32.68-.66,1-1,.35-.32.68-.66,1-1,.35-.32.68-.66,1-1,.35-.32.68-.66,1-1,.08-.07.16-.14.23-.21,4.52,7.57,12.85,12.73,27.97,12.73,12.18,0,19.94-3.35,24.87-8.6.35-.33.68-.66,1-1,.35-.33.68-.66,1-1,.35-.33.68-.66,1-1,.35-.33.68-.66,1-1,.35-.33.68-.66,1-1,.18-.17.36-.33.54-.51,4.24,8.3,12.66,14.11,29,14.11,12.38,0,20.2-3.34,25.12-8.57.35-.32.68-.66,1-1,.35-.32.68-.66,1-1,.35-.32.68-.66,1-1,.1-.09.2-.18.29-.27.81,6.72,5.32,10.54,12.66,10.54h7.15c4.38,0,7.74-1.36,9.93-3.88.36-.31.69-.64,1-1,.36-.31.69-.64,1-1,.36-.31.69-.64,1-1,.36-.31.69-.64,1-1,.36-.31.69-.64,1-1,.29-.25.56-.52.82-.8l.02.04c2.5,6.76,6.69,9.64,14,9.64h5.98c4.38,0,7.75-1.36,9.93-3.88.36-.31.69-.64,1-1,.36-.31.69-.64,1-1,.36-.31.69-.64,1-1,.36-.31.69-.64,1-1,.36-.31.69-.64,1-1,.36-.31.69-.64,1-1,.1-.09.21-.18.31-.27.93,6.49,5.41,10.15,12.62,10.15h8.32c4.38,0,7.74-1.36,9.93-3.88.36-.31.69-.64,1-1,.36-.31.69-.64,1-1,.36-.31.69-.64,1-1,.36-.31.69-.64,1-1,.36-.31.69-.64,1-1,.36-.31.69-.64,1-1,.36-.31.69-.64,1-1,.36-.31.69-.64,1-1,.36-.31.69-.64,1-1,.36-.31.69-.64,1-1,.36-.31.69-.64,1-1,.36-.31.69-.64,1-1,.36-.31.69-.64,1-1,.36-.31.69-.64,1-1,.36-.31.69-.64,1-1,.36-.31.69-.64,1-1,.36-.31.69-.64,1-1,.36-.31.69-.64,1-1,.36-.31.69-.64,1-1,.36-.31.69-.64,1-1,.36-.31.69-.64,1-1,.36-.31.69-.64,1-1,.36-.31.69-.64,1-1,.36-.31.69-.64,1-1,.36-.31.69-.64,1-1,.36-.31.69-.64,1-1,.36-.31.69-.64,1-1,.36-.31.69-.64,1-1,.36-.31.69-.64,1-1,2.52-2.18,3.88-5.55,3.88-9.93v-58c.11-.12.22-.25.33-.37.36-.31.69-.64,1-1,.36-.31.69-.64,1-1,.36-.31.69-.64,1-1,.36-.31.69-.64,1-1,.36-.31.69-.64,1-1,.36-.31.69-.64,1-1,.36-.31.69-.64,1-1,.36-.31.69-.64,1-1,.36-.31.69-.64,1-1,.36-.31.69-.64,1-1,.36-.31.69-.64,1-1,2.52-2.18,3.88-5.55,3.88-9.93v-8.58c0-8.14-4.67-12.81-12.81-12.81Z"/>
        <g>
          <path class="cls-2" d="M87.92,86.45c0,20.93-5.98,28.6-24.83,28.6s-25.09-7.67-25.09-28.6v-42.9c0-20.93,6.24-28.6,25.09-28.6s24.83,7.67,24.83,28.6v3.9c0,3.77-1.04,4.81-4.81,4.81h-8.32c-3.77,0-4.81-1.04-4.81-4.81v-7.02c0-5.2-2.21-7.28-6.76-7.28s-6.76,2.08-6.76,7.28v49.14c0,5.2,2.21,7.28,6.76,7.28s6.76-2.08,6.76-7.28v-7.02c0-3.77,1.04-4.81,4.81-4.81h8.32c3.77,0,4.81,1.04,4.81,4.81v3.9Z"/>
          <path class="cls-2" d="M120.29,78.52c-.65-1.82-1.17-2.34-3.12-2.34h-.52c-1.82,0-2.34.52-2.34,2.34v30.42c0,3.77-1.04,4.81-4.81,4.81h-8.32c-3.77,0-4.81-1.04-4.81-4.81V21.06c0-3.77,1.04-4.81,4.81-4.81h17.16c19.76,0,28.73,6.76,28.73,23.4v9.36c0,12.22-1.95,16.9-8.84,22.75-.78.52-.91.78-.91,1.43,0,.39.13.78.39,1.69l11.44,33.93c1.17,3.38-.13,4.94-3.51,4.94h-9.49c-3.64,0-4.42-.52-5.46-3.64l-10.4-31.59ZM114.31,56.16c0,1.82.52,2.34,2.34,2.34h2.73c6.11,0,9.23-2.73,9.23-8.97v-7.15c0-6.11-2.86-8.58-9.23-8.58h-2.73c-1.82,0-2.34.52-2.34,2.34v20.02Z"/>
          <path class="cls-2" d="M174.37,51.35c0,1.69.52,2.34,2.34,2.34h16.12c3.77,0,4.81,1.04,4.81,4.81v8.58c0,3.77-1.04,4.81-4.55,4.81h-16.38c-1.82,0-2.34.52-2.34,2.34v18.98c0,1.69.52,2.34,2.34,2.34h17.68c3.77,0,4.81,1.04,4.81,4.81v8.58c0,3.77-1.04,4.81-4.81,4.81h-33.15c-3.77,0-4.81-1.04-4.81-4.81V21.06c0-3.77,1.04-4.81,4.81-4.81h33.15c3.77,0,4.81,1.04,4.81,4.81v8.58c0,3.77-1.04,4.81-4.81,4.81h-17.68c-1.82,0-2.34.52-2.34,2.34v14.56Z"/>
          <path class="cls-2" d="M239.24,16.25c5.85,0,7.67,1.95,8.32,6.76l11.44,85.93c.52,3.77-.52,4.81-4.29,4.81h-8.97c-3.9,0-4.81-.91-5.33-4.81l-1.69-14.17c-.13-1.3-.52-1.69-2.08-1.69h-11.18c-1.56,0-1.95.39-2.08,1.69l-1.69,14.17c-.52,3.9-1.43,4.81-5.33,4.81h-8.97c-3.77,0-4.81-1.04-4.29-4.81l11.44-85.93c.65-4.81,2.47-6.76,8.32-6.76h16.38ZM231.05,40.95c-1.43,0-2.21.26-2.34,1.82l-2.99,30.29c-.13,1.56.26,1.95,1.95,1.95h6.76c1.69,0,2.08-.39,1.95-1.95l-2.99-30.29c-.13-1.56-.91-1.82-2.34-1.82Z"/>
          <path class="cls-2" d="M290.85,34.45c-1.82,0-2.34.52-2.34,2.34v72.15c0,3.77-1.04,4.81-4.81,4.81h-8.32c-3.77,0-4.81-1.04-4.81-4.81V36.79c0-1.82-.52-2.34-2.34-2.34h-8.06c-3.77,0-4.81-1.04-4.81-4.81v-8.58c0-3.77,1.04-4.81,4.81-4.81h38.74c3.77,0,4.81,1.04,4.81,4.81v8.58c0,3.77-1.04,4.81-4.81,4.81h-8.06Z"/>
          <path class="cls-2" d="M325.43,51.35c0,1.69.52,2.34,2.34,2.34h16.12c3.77,0,4.81,1.04,4.81,4.81v8.58c0,3.77-1.04,4.81-4.55,4.81h-16.38c-1.82,0-2.34.52-2.34,2.34v18.98c0,1.69.52,2.34,2.34,2.34h17.68c3.77,0,4.81,1.04,4.81,4.81v8.58c0,3.77-1.04,4.81-4.81,4.81h-33.15c-3.77,0-4.81-1.04-4.81-4.81V21.06c0-3.77,1.04-4.81,4.81-4.81h33.15c3.77,0,4.81,1.04,4.81,4.81v8.58c0,3.77-1.04,4.81-4.81,4.81h-17.68c-1.82,0-2.34.52-2.34,2.34v14.56Z"/>
          <path class="cls-2" d="M411.75,16.25c5.85,0,7.67,1.95,8.32,6.76l11.44,85.93c.52,3.77-.52,4.81-4.29,4.81h-8.97c-3.9,0-4.81-.91-5.33-4.81l-1.69-14.17c-.13-1.3-.52-1.69-2.08-1.69h-11.18c-1.56,0-1.95.39-2.08,1.69l-1.69,14.17c-.52,3.9-1.43,4.81-5.33,4.81h-8.97c-3.77,0-4.81-1.04-4.29-4.81l11.44-85.93c.65-4.81,2.47-6.76,8.32-6.76h16.38ZM403.56,40.95c-1.43,0-2.21.26-2.34,1.82l-2.99,30.29c-.13,1.56.26,1.95,1.95,1.95h6.76c1.69,0,2.08-.39,1.95-1.95l-2.99-30.29c-.13-1.56-.91-1.82-2.34-1.82Z"/>
          <path class="cls-2" d="M495.33,21.06c0-3.77,1.04-4.81,4.81-4.81h7.28c3.77,0,4.81,1.04,4.81,4.81v87.88c0,3.77-1.04,4.81-4.81,4.81h-5.98c-4.03,0-5.2-.91-6.5-4.42l-16.25-43.03c-.39-.91-.78-1.17-1.3-1.17-.65,0-.91.26-.91,1.43v42.38c0,3.77-1.04,4.81-4.81,4.81h-7.15c-3.77,0-4.81-1.04-4.81-4.81V21.06c0-3.77,1.04-4.81,4.81-4.81h5.85c3.77,0,5.07.39,6.24,3.38l16.51,44.07c.39.91.78,1.17,1.3,1.17.65,0,.91-.26.91-1.43V21.06Z"/>
          <path class="cls-2" d="M542,51.35c0,1.69.52,2.34,2.34,2.34h16.12c3.77,0,4.81,1.04,4.81,4.81v8.58c0,3.77-1.04,4.81-4.55,4.81h-16.38c-1.82,0-2.34.52-2.34,2.34v18.98c0,1.69.52,2.34,2.34,2.34h17.68c3.77,0,4.81,1.04,4.81,4.81v8.58c0,3.77-1.04,4.81-4.81,4.81h-33.15c-3.77,0-4.81-1.04-4.81-4.81V21.06c0-3.77,1.04-4.81,4.81-4.81h33.15c3.77,0,4.81,1.04,4.81,4.81v8.58c0,3.77-1.04,4.81-4.81,4.81h-17.68c-1.82,0-2.34.52-2.34,2.34v14.56Z"/>
          <path class="cls-2" d="M615.97,16.25c3.77,0,5.07,1.17,5.46,4.81l7.54,67.86c.13,1.17.39,1.43,1.3,1.43,1.04,0,1.43-.26,1.56-1.43l4.16-67.86c.26-3.77,1.04-4.81,4.81-4.81h9.62c3.77,0,5.2,1.04,4.81,4.81l-7.41,84.37c-.52,6.24-2.73,8.32-9.49,8.32h-11.05c-6.76,0-8.71-2.08-9.49-8.32l-3.38-26.91c-.13-1.04-.39-1.3-1.04-1.3s-.91.26-1.04,1.3l-3.25,26.91c-.78,6.24-2.73,8.32-9.49,8.32h-11.18c-6.76,0-8.97-2.08-9.49-8.32l-7.41-84.37c-.39-3.77,1.04-4.81,4.81-4.81h9.62c3.77,0,4.55,1.04,4.81,4.81l4.03,67.86c.13,1.17.52,1.43,1.56,1.43.91,0,1.17-.26,1.3-1.43l7.67-67.86c.39-3.64,1.69-4.81,5.46-4.81h5.2Z"/>
          <path class="cls-2" d="M715.94,16.25c5.85,0,7.67,1.95,8.32,6.76l11.44,85.93c.52,3.77-.52,4.81-4.29,4.81h-8.97c-3.9,0-4.81-.91-5.33-4.81l-1.69-14.17c-.13-1.3-.52-1.69-2.08-1.69h-11.18c-1.56,0-1.95.39-2.08,1.69l-1.69,14.17c-.52,3.9-1.43,4.81-5.33,4.81h-8.97c-3.77,0-4.81-1.04-4.29-4.81l11.44-85.93c.65-4.81,2.47-6.76,8.32-6.76h16.38ZM707.75,40.95c-1.43,0-2.21.26-2.34,1.82l-2.99,30.29c-.13,1.56.26,1.95,1.95,1.95h6.76c1.69,0,2.08-.39,1.95-1.95l-2.99-30.29c-.13-1.56-.91-1.82-2.34-1.82Z"/>
          <path class="cls-2" d="M790.43,86.45c0,20.93-5.98,28.6-24.83,28.6s-25.09-7.67-25.09-28.6v-42.9c0-20.93,6.24-28.6,25.09-28.6s24.83,7.67,24.83,28.6v3.9c0,3.77-1.04,4.81-4.81,4.81h-8.32c-3.77,0-4.81-1.04-4.81-4.81v-7.02c0-5.2-2.21-7.28-6.76-7.28s-6.76,2.08-6.76,7.28v49.14c0,5.2,2.21,7.28,6.76,7.28s6.76-2.08,6.76-7.28v-7.02c0-3.77,1.04-4.81,4.81-4.81h8.32c3.77,0,4.81,1.04,4.81,4.81v3.9Z"/>
          <path class="cls-2" d="M847.5,86.45c0,20.93-5.98,28.6-24.83,28.6s-25.09-7.67-25.09-28.6v-42.9c0-20.93,6.24-28.6,25.09-28.6s24.83,7.67,24.83,28.6v3.9c0,3.77-1.04,4.81-4.81,4.81h-8.32c-3.77,0-4.81-1.04-4.81-4.81v-7.02c0-5.2-2.21-7.28-6.76-7.28s-6.76,2.08-6.76,7.28v49.14c0,5.2,2.21,7.28,6.76,7.28s6.76-2.08,6.76-7.28v-7.02c0-3.77,1.04-4.81,4.81-4.81h8.32c3.77,0,4.81,1.04,4.81,4.81v3.9Z"/>
          <path class="cls-2" d="M879.74,115.05c-18.85,0-25.09-7.93-25.09-29.9v-40.3c0-21.84,6.24-29.9,25.09-29.9s25.09,8.06,25.09,29.9v40.3c0,21.97-6.24,29.9-25.09,29.9ZM879.74,96.85c4.55,0,6.63-2.08,6.63-7.28v-48.49c0-5.72-2.08-7.93-6.63-7.93s-6.63,2.21-6.63,7.93v48.49c0,5.2,2.08,7.28,6.63,7.28Z"/>
          <path class="cls-2" d="M951.11,16.25h8.32c3.77,0,4.81,1.04,4.81,4.81v65.39c0,20.93-6.24,28.6-25.09,28.6s-25.09-7.67-25.09-28.6V21.06c0-3.77,1.04-4.81,4.81-4.81h8.32c3.77,0,4.81,1.04,4.81,4.81v68.51c0,5.2,2.21,7.28,7.15,7.28s7.15-2.08,7.15-7.28V21.06c0-3.77,1.04-4.81,4.81-4.81Z"/>
          <path class="cls-2" d="M1011.04,21.06c0-3.77,1.04-4.81,4.81-4.81h7.28c3.77,0,4.81,1.04,4.81,4.81v87.88c0,3.77-1.04,4.81-4.81,4.81h-5.98c-4.03,0-5.2-.91-6.5-4.42l-16.25-43.03c-.39-.91-.78-1.17-1.3-1.17-.65,0-.91.26-.91,1.43v42.38c0,3.77-1.04,4.81-4.81,4.81h-7.15c-3.77,0-4.81-1.04-4.81-4.81V21.06c0-3.77,1.04-4.81,4.81-4.81h5.85c3.77,0,5.07.39,6.24,3.38l16.51,44.07c.39.91.78,1.17,1.3,1.17.65,0,.91-.26.91-1.43V21.06Z"/>
          <path class="cls-2" d="M1067.46,34.45c-1.82,0-2.34.52-2.34,2.34v72.15c0,3.77-1.04,4.81-4.81,4.81h-8.32c-3.77,0-4.81-1.04-4.81-4.81V36.79c0-1.82-.52-2.34-2.34-2.34h-8.06c-3.77,0-4.81-1.04-4.81-4.81v-8.58c0-3.77,1.04-4.81,4.81-4.81h38.74c3.77,0,4.81,1.04,4.81,4.81v8.58c0,3.77-1.04,4.81-4.81,4.81h-8.06Z"/>
        </g>
      </g>
    </g>
  </g>
</svg>