<?xml version="1.0" encoding="utf-8"?>
<!-- Generator: Adobe Illustrator 28.3.0, SVG Export Plug-In . SVG Version: 6.00 Build 0)  -->
<svg version="1.1" id="Layer_8" xmlns="http://www.w3.org/2000/svg" xmlns:xlink="http://www.w3.org/1999/xlink" x="0px" y="0px"
	 viewBox="0 0 541.5 542.3" style="enable-background:new 0 0 541.5 542.3;" xml:space="preserve">
<style type="text/css">
	.st0{fill:#FFFFFF;}
	.st1{fill:#E5F0D2;}
</style>
<circle class="st0" cx="270.8" cy="271.1" r="270.7"/>
<g>
	<path d="M458.2,76.8c-52-50.4-115.2-72.3-168.7-75.7C126.6-9.2,4.1,119.1,0.6,263.3c-1.9,78.6,25.2,146.2,81.2,201.3
		c50.9,50.1,112.9,75.9,184.2,77.1c153,2.5,272.2-119.4,274.9-263.7C542.4,199.2,514.8,131.7,458.2,76.8L458.2,76.8z M446.9,98.9
		c4.6,5.4,9.2,10.7,13.5,16.2c2.1,2.7,3.5,5.9,3.3,9.4c-0.2,5.1-3.5,8.3-7.5,10.7c-3.6,2.2-7.3,2.2-11.4-0.2c0.3,0.9,0.5,1.5,0.7,2
		c1.4,3.3,1,6.5-1.5,9.1c-1.8,2-4,3.8-5.9,5.7c-1.3,1.4-3.4,2.2-3.1,4.7c0.1,0.6-0.7,0.9-1.3,0.2c-3.2-3.6-6.3-7.1-9.5-10.8
		c-0.2-0.3-0.1-1.2,0.2-1.5c1.1-1.3,2.3-2.6,3.5-3.8c0.7-0.7,1.5-1.4,2.3-2.1c4.1-3.7,4.3-6.1,0.8-10.3c-1.2-1.5-2.6-3-4.1-4.7
		c-4.2,3.7-8.3,7.4-12.6,11.1c-3.5-4-6.9-7.8-10.4-11.7c12-10.7,24-21.3,36.1-32C442.4,93.8,444.7,96.3,446.9,98.9L446.9,98.9z
		 M364.4,86.2c11-8.3,22.1-16.5,33.1-24.8c0.9-0.7,1.5-0.8,2.5-0.1c3.6,2.5,7.3,4.9,11,7.3c0.7,0.5,1.1,0.9,0.8,1.9
		c-3.9,15.7-7.7,31.4-11.5,47c-0.1,0.4-0.2,0.8-0.4,1.4c-0.8-0.5-1.5-0.9-2.1-1.3c-3.2-2.1-6.4-4.3-9.7-6.4c-1-0.6-1.2-1.2-0.7-2.2
		c0.4-1.1,0.6-2.3,1.1-3.4c0.5-1.1,0.2-1.8-0.8-2.5c-3.6-2.3-7.2-4.7-10.8-7.1c-0.9-0.6-1.5-0.6-2.2,0.1c-1,1-2.1,1.9-3.2,2.7
		c-0.4,0.3-1.2,0.4-1.5,0.2c-3.9-2.5-7.8-5.1-11.7-7.7c-0.1,0-0.1-0.2-0.2-0.4C360.2,89.4,362.3,87.8,364.4,86.2L364.4,86.2z
		 M295.8,35.8c0.7-3.1,1.4-6.3,1.9-9.4c0.2-1.3,0.7-1.5,1.9-1.3c12.5,2.6,25.1,5.2,37.7,7.8c0.3,0,0.5,0.1,0.8,0.2
		c3.3,0.7,3.3,0.7,2.5,4c-0.5,2.5-1,4.9-1.5,7.4c-0.1,0.5-0.2,0.9-0.4,1.5c-4.6-0.9-9.1-1.9-13.9-2.8c-2.4,11.7-4.8,23.2-7.2,34.9
		c-5.2-1.1-10.2-2.1-15.4-3.2c0.4-2,0.8-3.8,1.2-5.7c1.9-9.2,3.8-18.4,5.7-27.6c0.3-1.4-0.1-1.8-1.4-2c-3.6-0.7-7.3-1.5-10.9-2.2
		C296,37.2,295.6,36.9,295.8,35.8L295.8,35.8z M241.7,25c12.3-0.5,24.6-1,36.8-1.5c0.3,0,0.5,0,0.9,0.1c0.2,3.6,0.3,7.2,0.5,11
		c-2.3,0.1-4.4,0.2-6.5,0.3c-5.3,0.2-10.5,0.4-15.8,0.6c-1,0-1.3,0.3-1.2,1.3c0.1,1.5,0.2,3,0.2,4.5c0,1,0.3,1.3,1.3,1.2
		c5.8-0.3,11.6-0.5,17.4-0.8c1,0,1.4,0.1,1.4,1.2c0,3.2,0,6.4,0,9.9c-2.1,0.1-4.5,0.3-7,0.4c-3.7,0.2-7.4,0.3-11.1,0.4
		c-1.2,0-1.5,0.5-1.4,1.6c0.1,1.6,0.2,3.2,0.2,4.8c0,1.1,0.5,1.4,1.5,1.3c6.9-0.3,13.7-0.6,20.6-0.9c2.5-0.1,2.5-0.2,2.6,2.3
		c0.1,2.5,0.1,4.9,0.3,7.4c0.1,1.2-0.4,1.5-1.4,1.5c-8.9,0.3-17.8,0.7-26.7,1c-3.3,0.1-6.6,0.3-10,0.4c-0.6,0-1.2,0-2,0
		c-0.2-4.4-0.4-8.7-0.6-12.9c-0.5-11.2-0.9-22.4-1.4-33.6C240.2,25.5,240.4,25,241.7,25L241.7,25z M183.8,38.8
		c11.1-3.3,22.2-6.5,33.3-9.8c1.2-0.4,1.7-0.2,2,1c0.7,2.6,1.5,5.3,2.3,7.9c0.4,1.1,0,1.5-1,1.8c-6.5,1.9-13.1,3.9-19.6,5.7
		c-1.3,0.4-1.6,0.9-1.1,2.1c0.5,1.1,0.8,2.3,1,3.5c0.2,1.2,0.6,1.6,2,1.2c5.4-1.7,10.8-3.2,16.2-4.8c1.2-0.4,1.6-0.1,1.9,1
		c0.7,2.6,1.5,5.3,2.3,7.9c0.4,1.1,0.2,1.5-0.9,1.8c-5.4,1.6-10.8,3.2-16.2,4.7c-1.3,0.4-1.6,0.8-1.1,2.1c0.7,1.8,1.1,3.7,1.7,5.7
		c7.9-2.3,15.6-4.6,23.5-6.9c1.1,3.6,2.1,7,3.2,10.7c-12.9,3.8-25.7,7.6-38.6,11.4c-4.6-15.5-9.1-30.7-13.6-46.1
		C182,39.4,182.9,39.1,183.8,38.8L183.8,38.8z M123.6,70.7c8-4.8,16-9.6,24.1-14.2c2.5-1.4,5.4-2.3,8.2-2.8c5.3-1,9.4,1.5,12.2,6.9
		c2.5,4.6,2.7,9.1-1.1,13.5c0.5,0,0.7,0,0.8,0c5.1-1.4,8.7,0.7,11.3,4.8c1.4,2.2,2.7,4.4,4.1,6.5c0.7,1,1.3,2.2,2.8,2.1
		c0.2,0,0.6,0.4,0.6,0.6c0,0.3-0.2,0.7-0.5,0.9c-4,2.5-8.1,4.9-12.1,7.3c-0.3,0.2-1.3-0.1-1.5-0.5c-1.5-1.9-2.8-3.9-4.2-5.9
		c-0.3-0.4-0.6-0.9-0.9-1.4c-2.7-4-4.9-4.6-9.1-2.3c-1.9,1-3.8,2.2-5.8,3.5c2.9,4.8,5.7,9.5,8.7,14.4c-4.5,2.7-8.9,5.4-13.4,8.1
		c-8.3-13.8-16.6-27.4-24.9-41.1C123.3,71,123.4,70.8,123.6,70.7L123.6,70.7z M107.8,83c2.9,3.1,5.6,6.1,8.5,9.2
		c-2.9,3-6.1,6.3-9.4,9.8c8.5,8.3,16.9,16.5,25.5,24.8c-3.6,3.7-7.2,7.4-10.9,11.3c-8.5-8.3-17-16.5-25.4-24.6
		c-3.5,3.3-6.8,6.5-10.3,9.8c-2.6-2.9-5.4-5.9-8.3-9.1C87.3,104.2,97.5,93.7,107.8,83L107.8,83z M47.5,279.5c-5.1,0-9.4-4.1-9.4-9.2
		c0-5,4.2-9.2,9.2-9.3c5,0,9.2,4.1,9.3,9.2C56.7,275.2,52.5,279.5,47.5,279.5L47.5,279.5z M64.9,367.3c-5.2-0.1-9.1-4.3-9-9.6
		c0.1-5,4.5-9.1,9.5-8.9c5,0.2,9.1,4.5,9,9.5C74.3,363.4,70,367.5,64.9,367.3z M90.3,181.3c-4.4,3.1-9.3,4.1-14.5,2.6
		c-0.7-0.2-1.3-0.6-2.1-0.9c2.4-4.2,4.8-8.2,7.1-12.2c0.2-0.3,0.8-0.6,1.2-0.5c3.1,0.5,5.3-0.9,6.8-3.3c0.9-1.5,1.5-3.2,1.9-4.9
		c0.3-1.2-0.1-2.4-1.2-3.1c-1.1-0.7-2.3-0.6-3.3,0.1c-1.5,1.1-2.9,2.3-4.3,3.6c-3.1,2.9-6.1,6.1-9.4,8.7c-4.7,3.6-9.8,4.1-15,1
		c-5.1-3.1-7.5-7.7-6.9-13.5c0.8-7.9,4.4-14.6,10.4-19.8c4.7-4.1,10.3-5.1,16.3-3c0.2,0.1,0.5,0.2,0.9,0.4c-2.4,4.1-4.7,8.1-7,12
		c-0.2,0.4-1,0.6-1.5,0.6c-3.5-0.1-7.5,4.4-7,7.9c0.2,1.5,1.6,2.4,3.1,1.9c1.2-0.5,2.4-1.2,3.4-2.1c2.9-2.7,5.6-5.5,8.4-8.2
		c1.3-1.2,2.8-2.4,4.3-3.3c7.7-4.7,17.4-1,20.2,7.6c1.2,3.5,1,7.1,0,10.6C100.1,170.6,96.6,176.9,90.3,181.3L90.3,181.3z M113.7,439
		c-5.2,0-9.3-4.1-9.3-9.3c0-5,4.2-9.2,9.2-9.2c5,0,9.2,4.2,9.2,9.3C122.8,434.9,118.7,439,113.7,439L113.7,439z M202.4,499.3
		c-1.2,2.9-2.3,5.8-3.6,8.9c-2-0.8-3.9-1.5-5.7-2.2c-8.9-3.5-17.8-7.1-26.8-10.6c-1.3-0.5-1.6-0.9-1-2.3
		c5.4-13.4,10.8-26.9,16.1-40.4c0.2-0.6,0.5-1.2,0.8-1.9c4.9,1.9,9.5,3.8,14.3,5.7c-4.5,11.3-8.9,22.3-13.4,33.7
		c1.7,0.7,3.4,1.4,5.1,2.1c4.5,1.8,9,3.6,13.5,5.3C202.6,497.9,202.8,498.3,202.4,499.3L202.4,499.3z M240.6,470.1
		c-2,9.8-3.9,19.7-5.8,29.5c-0.9,4.6-1.8,9.2-2.7,13.7c-0.1,0.6-0.3,1.1-0.4,1.8c-5-1-9.9-1.9-15.1-3c3-15.4,6-30.8,9.1-46.4
		c3.7,0.7,7.2,1.4,10.8,2.1c1.1,0.2,2.1,0.5,3.2,0.6C240.6,468.8,240.8,469.2,240.6,470.1L240.6,470.1z M288.5,514.6
		c-3.9,3.3-8.6,4.5-13.6,4.9c-6,0.6-11.8-0.1-17.1-3.4c-4.4-2.8-7.1-6.6-7.6-12.2c3.5,0,6.9,0,10.2,0c0.3,0,0.5,0.1,0.8,0
		c2.1-0.1,3.7,0,5,2.3c1.7,3,8.4,3.4,11.1,1.2c1.6-1.3,1.6-3.4-0.2-4.5c-1.7-0.9-3.5-1.5-5.4-2.1c-3.8-1.2-7.8-2-11.6-3.4
		c-9.1-3.6-12-13.9-6.1-21.1c1.3-1.5,2.9-3,4.7-3.8c8.1-3.7,16.4-4,24.6-0.1c5,2.3,7.5,6.6,8.4,12.1c-0.5,0.1-0.9,0.2-1.2,0.2
		c-4,0-7.9,0-11.9,0c-0.9,0-1.3-0.3-1.8-1.1c-0.6-1-1.6-2.1-2.6-2.4c-2-0.4-4.1-0.4-6.2-0.2c-0.8,0.1-1.8,1.2-2,1.9
		c-0.1,0.8,0.4,2.1,1.1,2.6c1.4,0.9,3.1,1.5,4.7,2c3.6,1.1,7.4,1.9,11,3.1c3.4,1.1,6.4,2.8,8.4,5.9
		C295,502.1,293.6,510.2,288.5,514.6L288.5,514.6z M333.4,484.1c2,7.9,3.9,15.7,5.9,23.6c0.3,1.2,0,1.6-1.2,1.8
		c-3.9,0.9-7.8,1.8-11.7,2.9c-1.5,0.4-1.9,0-2.2-1.4c-2.5-10.1-5-20.2-7.5-30.3c-0.1-0.6-0.3-1.1-0.5-1.8c-3.9,1-7.6,1.9-11.3,2.9
		c-2.1,0.5-2.1,0.5-2.6-1.6c-0.8-3.2-1.6-6.4-2.4-9.9c14-3.5,27.9-7,42-10.5c1,4,2,7.9,3,11.9c-4.5,1.2-8.9,2.3-13.5,3.4
		C331.9,478.3,332.6,481.2,333.4,484.1L333.4,484.1z M432.8,438.7c-5,0.1-9.2-4.1-9.3-9.1c0-5.1,4.1-9.4,9.2-9.4
		c5,0,9.2,4.2,9.2,9.3C442,434.4,437.9,438.6,432.8,438.7z M272.3,446.1c-98.6,0.9-177.4-79.4-176.2-176.8
		C97.2,174,175.4,95.3,273.4,96.8c95.6,1.4,172.1,79.6,171.9,174.8C445.4,366.6,368.9,445.2,272.3,446.1L272.3,446.1z M450,187.3
		c-2.4-4.6-4.7-9.1-7.2-14c10.6-5.4,21.1-10.8,31.7-16.3c-2.2-4.3-4.3-8.4-6.5-12.6c3.7-1.9,7.3-3.7,11-5.7c0.3,0.4,0.6,0.9,0.8,1.3
		c6.3,12.2,12.5,24.3,18.8,36.5c0.6,1.1,0.5,1.6-0.7,2.2c-3.2,1.6-6.4,3.2-9.8,4.9c-2.2-4.2-4.3-8.3-6.5-12.6
		C471.2,176.5,460.7,181.9,450,187.3L450,187.3z M481,366.8c-5.1,0-9.2-4.1-9.3-9.2c0-5.1,4.1-9.3,9.3-9.3c5,0,9.2,4.2,9.2,9.2
		C490.3,362.7,486.1,366.8,481,366.8z M498.7,279c-5,0-9.3-4.1-9.3-9.1c-0.1-5.1,4.2-9.4,9.3-9.4c5,0,9.2,4.2,9.2,9.2
		C507.9,274.8,503.8,279,498.7,279L498.7,279z"/>
	<path d="M156.8,69.8c-1.2-2.2-3.4-3.3-5.7-2.3c-3.1,1.3-5.9,3.1-9,4.7c1.8,3,3.4,5.6,5.2,8.6c2.9-1.9,5.6-3.6,8.2-5.5
		C157.5,73.8,157.8,71.8,156.8,69.8L156.8,69.8z"/>
	<path d="M441.5,123.7c2.1,1.9,4.2,1.9,6,0.4c2-1.6,2.5-4,0.9-6.3c-1.8-2.6-4-5-6.1-7.6c-2.5,2.2-4.9,4.3-7.5,6.6
		C437.1,119.2,439.1,121.6,441.5,123.7L441.5,123.7z"/>
	<path d="M397.3,77.4c-0.1-0.1-0.2-0.1-0.3-0.2c-4.4,3.8-8.8,7.5-13.3,11.4c2.9,1.9,5.6,3.7,8.5,5.6C393.9,88.5,395.6,83,397.3,77.4
		L397.3,77.4z"/>
	<path d="M255,309c-3.8-4.3-10.7-6.5-20.6-6.5h-18.1c-1.7,0-2.9-0.4-3.6-1.1c-0.8-0.7-1.2-1.8-1.2-3.2V189.9c0-1.4,0.4-2.5,1.2-3.2
		c0.8-0.7,2-1.1,3.6-1.1h5.6c1.7,0,2.9,0.4,3.6,1.1c0.8,0.7,1.2,1.8,1.2,3.2v11.4c1.5-4.5,1.9-5.9,5.4-9c4.6-4,12.1-6.1,22.4-6.1
		h5.8v-0.8c0-7.4-2.1-13.3-6.3-17.7c-4.2-4.5-11.5-6.7-21.7-6.7h-26.3c-10.2,0-17.5,2.2-21.7,6.7s-6.3,10.4-6.3,17.7v115.5
		c0,7.4,1.8,13.3,5.5,17.9c3.6,4.6,10.5,6.9,20.4,6.9h18.4c1.7,0,2.9,0.4,3.6,1.1c0.8,0.7,1.2,1.8,1.2,3.2V348
		c0,1.5-0.4,2.5-1.2,3.2c-0.8,0.7-2,1.1-3.6,1.1h-5.6c-1.7,0-2.9-0.4-3.6-1.1c-0.8-0.7-1.2-1.8-1.2-3.2v-10.6h-33.6v15.2
		c0,7.4,2.1,13.3,6.4,17.7c4.3,4.5,11.6,6.7,21.8,6.7h26.1c10.2,0,17.5-2.2,21.7-6.7c4.2-4.5,6.3-10.4,6.3-17.7v-26
		c0-2.4-0.2-4.7-0.6-6.8C259.2,315.5,257.5,311.9,255,309L255,309z"/>
	<path d="M280.8,192.1h-26.3c-10.2,0-17.5,2.2-21.7,6.7c-3.4,3.6-5.5,8.2-6.1,13.7c-0.1,1.3-0.2,2.7-0.2,4.1v79.6h7.9
		c10,0,12.8,0.2,18.7,3.1c2.4,1.2,4.4,2.4,7,6.4v-34.9h15.2v106h33.6V216.5c0-7.4-2.1-13.3-6.3-17.7
		C298.2,194.3,291,192.1,280.8,192.1L280.8,192.1z M275.2,247.4H260v-26.4c0-1.4,0.4-2.5,1.2-3.2c0.8-0.7,2-1.1,3.6-1.1h5.6
		c1.7,0,2.9,0.4,3.6,1.1s1.2,1.8,1.2,3.2L275.2,247.4L275.2,247.4z"/>
	<rect x="324" y="164.5" width="33.6" height="212.1"/>
</g>
<circle class="st1" cx="961.8" cy="271.1" r="264.8"/>
<circle class="st0" cx="961.8" cy="271.1" r="218.3"/>
<g>
	<path d="M1112.9,114.2c-41.9-40.7-92.9-58.3-136-61c-131.4-8.3-230.2,95.1-233,211.4c-1.5,63.4,20.3,117.9,65.5,162.3
		c41,40.4,91,61.2,148.5,62.2c123.4,2,219.5-96.3,221.7-212.6C1180.8,212.9,1158.5,158.4,1112.9,114.2L1112.9,114.2z M1103.8,132
		c3.7,4.3,7.4,8.6,10.9,13.1c1.7,2.1,2.8,4.7,2.7,7.6c-0.2,4.1-2.8,6.7-6.1,8.6c-2.9,1.8-5.9,1.8-9.2-0.2c0.2,0.8,0.4,1.2,0.5,1.6
		c1.1,2.7,0.8,5.2-1.2,7.4c-1.5,1.6-3.2,3-4.7,4.6c-1,1.1-2.7,1.8-2.5,3.8c0.1,0.5-0.6,0.7-1.1,0.2c-2.5-2.9-5.1-5.8-7.6-8.7
		c-0.2-0.2-0.1-0.9,0.1-1.2c0.9-1.1,1.9-2.1,2.8-3c0.6-0.6,1.2-1.1,1.8-1.7c3.3-3,3.4-4.9,0.7-8.3c-1-1.2-2.1-2.4-3.3-3.8
		c-3.4,3-6.7,5.9-10.2,9c-2.8-3.2-5.6-6.3-8.4-9.5c9.7-8.6,19.4-17.1,29.1-25.8C1100.2,127.9,1102,129.9,1103.8,132L1103.8,132z
		 M1037.3,121.8c8.9-6.7,17.8-13.3,26.7-20c0.7-0.6,1.2-0.7,2-0.1c2.9,2,5.9,3.9,8.9,5.9c0.6,0.4,0.9,0.7,0.7,1.6
		c-3.1,12.6-6.2,25.3-9.3,37.9c-0.1,0.3-0.2,0.6-0.4,1.1c-0.6-0.4-1.2-0.7-1.7-1.1c-2.6-1.7-5.2-3.5-7.8-5.1c-0.8-0.5-1-1-0.6-1.8
		c0.4-0.9,0.5-1.8,0.9-2.7c0.4-0.9,0.2-1.4-0.7-2c-2.9-1.9-5.8-3.8-8.7-5.7c-0.7-0.5-1.2-0.5-1.8,0.1c-0.8,0.8-1.7,1.5-2.6,2.2
		c-0.3,0.2-0.9,0.4-1.2,0.2c-3.2-2-6.3-4.1-9.4-6.2c-0.1,0-0.1-0.2-0.2-0.3C1033.9,124.3,1035.6,123.1,1037.3,121.8L1037.3,121.8z
		 M982,81.1c0.6-2.5,1.1-5.1,1.6-7.6c0.2-1.1,0.6-1.2,1.6-1c10.1,2.1,20.2,4.2,30.4,6.3c0.2,0,0.4,0.1,0.6,0.2
		c2.7,0.6,2.6,0.6,2.1,3.3c-0.4,2-0.8,4-1.2,6c-0.1,0.4-0.2,0.7-0.3,1.2c-3.7-0.8-7.4-1.5-11.2-2.3c-2,9.4-3.9,18.7-5.8,28.1
		c-4.2-0.9-8.2-1.7-12.4-2.6c0.3-1.6,0.6-3.1,0.9-4.6c1.5-7.4,3-14.8,4.6-22.2c0.2-1.1-0.1-1.4-1.1-1.6c-2.9-0.5-5.9-1.2-8.8-1.8
		C982.1,82.3,981.8,82,982,81.1L982,81.1z M938.3,72.4c9.9-0.4,19.8-0.8,29.7-1.2c0.2,0,0.4,0,0.8,0.1c0.1,2.9,0.3,5.8,0.4,8.9
		c-1.8,0.1-3.5,0.2-5.2,0.3c-4.2,0.2-8.5,0.3-12.7,0.5c-0.8,0-1.1,0.3-1,1.1c0.1,1.2,0.1,2.4,0.1,3.6c0,0.8,0.2,1,1.1,1
		c4.7-0.2,9.3-0.4,14-0.6c0.8,0,1.1,0.1,1.1,0.9c0,2.6,0,5.2,0,8c-1.7,0.1-3.7,0.2-5.6,0.3c-3,0.1-6,0.3-9,0.3c-1,0-1.2,0.4-1.1,1.3
		c0.1,1.3,0.2,2.6,0.2,3.9c0,0.9,0.4,1.1,1.2,1.1c5.5-0.2,11.1-0.4,16.6-0.7c2-0.1,2-0.1,2.1,1.8c0.1,2,0.1,4,0.2,6
		c0.1,1-0.3,1.2-1.2,1.2c-7.2,0.3-14.4,0.5-21.5,0.8c-2.7,0.1-5.4,0.2-8,0.3c-0.5,0-0.9,0-1.6,0c-0.2-3.6-0.3-7-0.5-10.4
		c-0.4-9-0.7-18.1-1.1-27.1C937.2,72.8,937.3,72.4,938.3,72.4L938.3,72.4z M891.7,83.6c9-2.6,17.9-5.2,26.9-7.9
		c1-0.3,1.4-0.2,1.7,0.8c0.6,2.1,1.2,4.2,1.9,6.3c0.3,0.9,0,1.2-0.8,1.4c-5.3,1.5-10.5,3.1-15.8,4.6c-1.1,0.3-1.3,0.7-0.9,1.7
		c0.4,0.9,0.6,1.9,0.8,2.9c0.2,0.9,0.5,1.3,1.6,0.9c4.3-1.3,8.7-2.6,13.1-3.9c0.9-0.3,1.3-0.1,1.5,0.8c0.5,2.1,1.2,4.3,1.9,6.3
		c0.3,0.9,0.2,1.2-0.8,1.5c-4.4,1.2-8.7,2.6-13.1,3.8c-1,0.3-1.3,0.7-0.9,1.7c0.5,1.4,0.9,3,1.4,4.6c6.4-1.9,12.6-3.7,18.9-5.6
		c0.9,2.9,1.7,5.7,2.5,8.6c-10.4,3.1-20.7,6.1-31.1,9.2c-3.7-12.5-7.3-24.8-11-37.2C890.2,84.1,890.9,83.8,891.7,83.6L891.7,83.6z
		 M843.1,109.2c6.5-3.8,12.9-7.8,19.5-11.5c2-1.1,4.3-1.8,6.6-2.2c4.3-0.8,7.5,1.2,9.9,5.6c2,3.7,2.2,7.3-0.9,10.9
		c0.4,0,0.6,0,0.7,0c4.1-1.1,7,0.5,9.1,3.9c1.1,1.8,2.2,3.5,3.3,5.3c0.5,0.8,1,1.7,2.3,1.7c0.2,0,0.5,0.3,0.5,0.5
		c0,0.2-0.2,0.6-0.4,0.7c-3.2,2-6.5,4-9.8,5.9c-0.3,0.1-1-0.1-1.2-0.4c-1.2-1.5-2.3-3.2-3.4-4.8c-0.2-0.3-0.5-0.7-0.7-1.1
		c-2.2-3.2-4-3.7-7.3-1.9c-1.6,0.8-3,1.8-4.7,2.8c2.4,3.9,4.6,7.7,7,11.6c-3.6,2.2-7.2,4.3-10.8,6.6c-6.7-11.1-13.4-22.1-20.1-33.2
		C842.8,109.5,842.9,109.3,843.1,109.2L843.1,109.2z M830.4,119.2c2.3,2.5,4.5,4.9,6.9,7.4c-2.3,2.4-4.9,5.1-7.6,7.9
		c6.9,6.7,13.6,13.3,20.6,20c-2.9,3-5.8,6-8.8,9.1c-6.9-6.7-13.7-13.3-20.5-19.9c-2.8,2.6-5.5,5.2-8.3,7.9c-2.1-2.3-4.3-4.7-6.7-7.3
		C813.8,136.3,822,127.8,830.4,119.2L830.4,119.2z M781.7,277.7c-4.2,0-7.6-3.3-7.6-7.4c0-4,3.4-7.4,7.4-7.5c4,0,7.4,3.3,7.5,7.4
		C789.1,274.2,785.8,277.6,781.7,277.7L781.7,277.7z M795.8,348.5c-4.2-0.1-7.3-3.5-7.2-7.7c0.1-4,3.6-7.3,7.7-7.2
		c4,0.1,7.3,3.6,7.2,7.7C803.3,345.3,799.9,348.6,795.8,348.5z M816.2,198.5c-3.6,2.5-7.5,3.3-11.7,2.1c-0.6-0.2-1.1-0.5-1.7-0.7
		c2-3.4,3.8-6.6,5.8-9.9c0.1-0.2,0.6-0.5,0.9-0.4c2.5,0.4,4.2-0.8,5.5-2.7c0.7-1.2,1.2-2.6,1.6-3.9c0.3-0.9,0-1.9-1-2.5
		c-0.9-0.6-1.9-0.5-2.7,0.1c-1.2,0.9-2.4,1.9-3.5,2.9c-2.5,2.3-4.9,4.9-7.6,7c-3.8,2.9-7.9,3.3-12.1,0.8c-4.1-2.5-6-6.2-5.5-10.9
		c0.7-6.4,3.5-11.8,8.4-15.9c3.8-3.3,8.3-4.1,13.1-2.4c0.2,0.1,0.4,0.2,0.8,0.3c-1.9,3.3-3.8,6.5-5.6,9.6c-0.2,0.3-0.8,0.5-1.2,0.4
		c-2.8-0.1-6.1,3.5-5.7,6.4c0.2,1.2,1.3,2,2.5,1.5c1-0.4,2-0.9,2.7-1.7c2.3-2.1,4.5-4.5,6.8-6.6c1.1-1,2.2-1.9,3.5-2.7
		c6.2-3.8,14-0.8,16.3,6.1c0.9,2.9,0.8,5.7,0,8.6C824.1,189.8,821.3,194.9,816.2,198.5L816.2,198.5z M835.1,406.3
		c-4.2,0-7.5-3.3-7.5-7.5c0-4,3.4-7.4,7.5-7.4s7.4,3.4,7.4,7.5C842.5,402.9,839.2,406.3,835.1,406.3L835.1,406.3z M906.7,454.9
		c-1,2.3-1.9,4.6-2.9,7.1c-1.6-0.6-3.1-1.2-4.6-1.8c-7.2-2.9-14.4-5.8-21.6-8.6c-1-0.4-1.3-0.8-0.8-1.9c4.4-10.8,8.7-21.7,13-32.5
		c0.2-0.5,0.4-0.9,0.6-1.5c3.9,1.6,7.7,3.1,11.5,4.6c-3.6,9.1-7.2,18-10.8,27.1c1.4,0.6,2.8,1.1,4.1,1.7c3.6,1.5,7.2,2.9,10.9,4.3
		C906.8,453.8,907,454.1,906.7,454.9L906.7,454.9z M937.5,431.4c-1.6,7.9-3.1,15.9-4.7,23.8c-0.7,3.7-1.5,7.4-2.2,11.1
		c-0.1,0.5-0.2,0.9-0.3,1.5c-4.1-0.8-8-1.6-12.2-2.4c2.4-12.5,4.9-24.8,7.3-37.4c3,0.6,5.8,1.1,8.7,1.7c0.8,0.2,1.7,0.4,2.5,0.5
		C937.4,430.3,937.6,430.6,937.5,431.4L937.5,431.4z M976.1,467.2c-3.1,2.7-7,3.6-10.9,4c-4.8,0.5-9.5-0.1-13.8-2.8
		c-3.5-2.2-5.7-5.3-6.1-9.8c2.9,0,5.5,0,8.2,0c0.2,0,0.4,0,0.6,0c1.7-0.1,3,0,4.1,1.9c1.3,2.4,6.8,2.8,9,1c1.3-1,1.3-2.8-0.2-3.6
		c-1.3-0.8-2.8-1.2-4.3-1.7c-3.1-1-6.3-1.6-9.3-2.8c-7.3-2.9-9.6-11.2-4.9-17c1-1.2,2.4-2.4,3.8-3c6.6-3,13.3-3.2,19.8-0.1
		c4,1.9,6.1,5.4,6.8,9.8c-0.4,0.1-0.7,0.1-1,0.1c-3.2,0-6.4,0-9.6,0c-0.7,0-1.1-0.2-1.5-0.9c-0.5-0.8-1.3-1.7-2.1-1.9
		c-1.6-0.3-3.3-0.3-5-0.1c-0.6,0.1-1.5,0.9-1.6,1.6c-0.1,0.6,0.4,1.7,0.9,2.1c1.1,0.7,2.5,1.2,3.8,1.6c2.9,0.9,5.9,1.6,8.9,2.5
		c2.7,0.9,5.2,2.3,6.8,4.8C981.3,457.1,980.2,463.7,976.1,467.2L976.1,467.2z M1012.3,442.6c1.6,6.3,3.1,12.7,4.8,19
		c0.2,1,0,1.3-0.9,1.5c-3.2,0.7-6.3,1.5-9.4,2.4c-1.2,0.4-1.5,0-1.8-1.1c-2-8.1-4-16.3-6.1-24.4c-0.1-0.5-0.3-0.9-0.4-1.4
		c-3.1,0.8-6.1,1.5-9.1,2.3c-1.7,0.4-1.7,0.4-2.1-1.3c-0.6-2.6-1.3-5.2-2-8c11.3-2.8,22.5-5.6,33.9-8.5c0.8,3.2,1.6,6.3,2.4,9.6
		c-3.7,0.9-7.2,1.8-10.9,2.8C1011.1,438,1011.7,440.3,1012.3,442.6L1012.3,442.6z M1092.5,406c-4,0.1-7.4-3.3-7.5-7.4
		c0-4.1,3.3-7.6,7.4-7.6c4,0,7.4,3.4,7.4,7.5C1099.9,402.5,1096.5,405.9,1092.5,406z M963,412c-79.5,0.7-143-64-142.1-142.6
		c0.9-76.8,63.9-140.2,143-139.1c77.1,1.1,138.8,64.2,138.6,141C1102.6,347.9,1040.9,411.3,963,412L963,412z M1106.3,203.3
		c-1.9-3.7-3.8-7.4-5.8-11.2c8.5-4.4,17-8.7,25.6-13.1c-1.8-3.4-3.4-6.7-5.2-10.2c3-1.5,5.8-3,8.9-4.6c0.2,0.4,0.5,0.7,0.7,1.1
		c5,9.8,10.1,19.6,15.1,29.4c0.5,0.9,0.4,1.3-0.5,1.8c-2.6,1.2-5.2,2.6-7.9,4c-1.8-3.4-3.5-6.7-5.3-10.2
		C1123.4,194.6,1114.9,198.9,1106.3,203.3L1106.3,203.3z M1131.3,348.1c-4.1,0-7.4-3.3-7.5-7.4c0-4.1,3.3-7.5,7.5-7.5
		c4.1,0,7.4,3.4,7.4,7.5C1138.8,344.7,1135.4,348.1,1131.3,348.1z M1145.6,277.2c-4.1,0-7.5-3.3-7.5-7.4c0-4.1,3.4-7.6,7.5-7.5
		c4.1,0,7.4,3.4,7.4,7.5C1153,273.8,1149.7,277.2,1145.6,277.2L1145.6,277.2z"/>
	<path d="M869.8,108.6c-1-1.7-2.7-2.6-4.6-1.8c-2.5,1.1-4.8,2.5-7.2,3.8c1.5,2.4,2.7,4.5,4.2,6.9c2.3-1.6,4.5-2.9,6.6-4.4
		C870.4,111.7,870.7,110.1,869.8,108.6L869.8,108.6z"/>
	<path d="M1099.4,152c1.7,1.6,3.3,1.5,4.8,0.3c1.6-1.3,2-3.2,0.7-5.1c-1.4-2.1-3.2-4-4.9-6.1c-2.1,1.8-3.9,3.5-6,5.3
		C1095.9,148.4,1097.5,150.3,1099.4,152L1099.4,152z"/>
	<path d="M1063.8,114.7c-0.1-0.1-0.2-0.1-0.3-0.2c-3.5,3-7.1,6.1-10.7,9.2c2.3,1.6,4.5,3,6.8,4.5
		C1061,123.6,1062.4,119.2,1063.8,114.7L1063.8,114.7z"/>
	<path d="M949,301.4c-3.1-3.5-8.6-5.2-16.7-5.2h-14.6c-1.3,0-2.3-0.3-2.9-0.9s-0.9-1.5-0.9-2.6v-87.3c0-1.2,0.3-2,0.9-2.6
		s1.6-0.9,2.9-0.9h4.5c1.3,0,2.3,0.3,2.9,0.9s0.9,1.5,0.9,2.6v9.2c1.2-3.6,1.5-4.8,4.4-7.3c3.7-3.2,9.8-4.9,18.1-4.9h4.7v-0.7
		c0-5.9-1.7-10.7-5.1-14.3c-3.4-3.6-9.2-5.4-17.5-5.4h-21.2c-8.3,0-14.1,1.8-17.5,5.4c-3.4,3.6-5.1,8.4-5.1,14.3v93.2
		c0,5.9,1.5,10.8,4.4,14.5c2.9,3.7,8.4,5.6,16.5,5.6h14.9c1.3,0,2.3,0.3,2.9,0.9s0.9,1.5,0.9,2.6v14.5c0,1.2-0.3,2-0.9,2.6
		s-1.6,0.9-2.9,0.9h-4.5c-1.3,0-2.3-0.3-2.9-0.9s-0.9-1.5-0.9-2.6v-8.6h-27.1v12.2c0,5.9,1.7,10.7,5.2,14.3s9.3,5.4,17.6,5.4H931
		c8.3,0,14.1-1.8,17.5-5.4c3.4-3.6,5.1-8.4,5.1-14.3v-21c0-2-0.2-3.8-0.5-5.5C952.4,306.7,951.1,303.8,949,301.4L949,301.4z"/>
	<path d="M969.8,207.2h-21.2c-8.3,0-14.1,1.8-17.5,5.4c-2.8,2.9-4.4,6.6-4.9,11c-0.1,1.1-0.2,2.1-0.2,3.3V291h6.4
		c8,0,10.3,0.2,15,2.5c2,1,3.5,2,5.7,5.1v-28.2h12.2V356h27.1V226.9c0-5.9-1.7-10.7-5.1-14.3C983.9,209,978.1,207.2,969.8,207.2
		L969.8,207.2z M965.3,251.8h-12.2v-21.3c0-1.2,0.3-2,0.9-2.6s1.6-0.9,2.9-0.9h4.5c1.3,0,2.3,0.3,2.9,0.9s0.9,1.5,0.9,2.6V251.8
		L965.3,251.8z"/>
	<rect x="1004.7" y="184.9" width="27.1" height="171.1"/>
</g>
</svg>
