<?xml version="1.0" encoding="UTF-8"?>
<svg id="Layer_8" data-name="Layer 8" xmlns="http://www.w3.org/2000/svg" width="541.51" height="542.29" viewBox="0 0 541.51 542.29">
  <defs>
    <style>
      .cls-1 {
        fill: #000;
      }

      .cls-1, .cls-2 {
        stroke-width: 0px;
      }

      .cls-2 {
        fill: #fff;
      }
    </style>
  </defs>
  <circle class="cls-2" cx="270.76" cy="271.15" r="264.78"/>
  <circle class="cls-2" cx="270.76" cy="271.15" r="218.33"/>
  <g>
    <path class="cls-1" d="M421.95,114.23c-41.91-40.65-92.87-58.3-136.05-61.04-131.39-8.32-230.15,95.12-232.98,211.38-1.54,63.4,20.32,117.88,65.49,162.33,41.04,40.39,91.03,61.23,148.55,62.17,123.38,2.02,219.46-96.3,221.67-212.62,1.21-63.56-21.09-118.01-66.68-162.23h0ZM412.81,132c3.67,4.32,7.38,8.6,10.89,13.05,1.7,2.15,2.82,4.73,2.7,7.57-.18,4.13-2.83,6.67-6.08,8.64-2.89,1.75-5.91,1.78-9.19-.19.25.75.37,1.18.54,1.58,1.12,2.7.77,5.22-1.19,7.37-1.48,1.63-3.19,3.04-4.72,4.63-1.05,1.09-2.74,1.78-2.48,3.82.06.46-.58.72-1.05.19-2.55-2.88-5.12-5.76-7.63-8.68-.19-.22-.09-.93.14-1.2.88-1.06,1.85-2.06,2.82-3.04.58-.58,1.22-1.1,1.82-1.66,3.27-3,3.44-4.89.66-8.33-1-1.24-2.1-2.41-3.29-3.77-3.39,2.99-6.73,5.94-10.19,8.99-2.82-3.19-5.57-6.28-8.4-9.47,9.71-8.61,19.36-17.15,29.09-25.77,1.9,2.14,3.77,4.17,5.56,6.28h0ZM346.3,121.78c8.9-6.67,17.81-13.33,26.69-20.03.73-.55,1.24-.65,2.04-.1,2.92,2.01,5.89,3.95,8.86,5.89.6.39.89.73.68,1.56-3.13,12.64-6.21,25.29-9.3,37.94-.08.32-.2.63-.36,1.11-.64-.4-1.18-.72-1.71-1.07-2.6-1.71-5.18-3.46-7.81-5.13-.77-.49-.95-.96-.6-1.79.36-.88.5-1.84.87-2.72.38-.92.19-1.45-.67-2-2.92-1.85-5.81-3.77-8.67-5.72-.7-.47-1.18-.5-1.8.09-.81.78-1.66,1.52-2.57,2.19-.3.22-.94.35-1.21.18-3.17-2.03-6.29-4.13-9.42-6.21-.06-.04-.07-.15-.16-.35,1.7-1.27,3.42-2.56,5.14-3.85h0ZM290.97,81.12c.59-2.53,1.13-5.07,1.57-7.62.18-1.06.6-1.22,1.57-1.02,10.12,2.13,20.25,4.22,30.37,6.32.21.04.42.1.63.15,2.65.55,2.64.55,2.05,3.26-.43,1.99-.82,3.98-1.24,5.97-.08.37-.2.73-.32,1.19-3.73-.76-7.36-1.5-11.17-2.28-1.95,9.4-3.88,18.69-5.83,28.12-4.19-.86-8.19-1.69-12.39-2.55.32-1.59.62-3.1.93-4.61,1.53-7.41,3.05-14.83,4.63-22.24.24-1.11-.1-1.42-1.13-1.61-2.94-.54-5.85-1.21-8.77-1.79-.77-.15-1.1-.39-.89-1.29h0ZM247.3,72.42c9.9-.38,19.8-.79,29.71-1.18.21,0,.42.04.76.07.13,2.91.26,5.78.4,8.86-1.84.09-3.54.19-5.25.26-4.24.17-8.48.35-12.72.48-.8.02-1.06.27-.99,1.07.1,1.21.14,2.42.13,3.63,0,.78.22,1.04,1.06.99,4.67-.24,9.34-.38,14.01-.61.77-.04,1.12.12,1.12.95-.03,2.59-.01,5.18-.01,7.99-1.69.1-3.65.23-5.61.31-2.98.13-5.97.26-8.95.32-.96.02-1.19.41-1.13,1.26.09,1.29.17,2.59.17,3.89,0,.88.4,1.1,1.2,1.06,5.53-.25,11.07-.45,16.6-.71,2.01-.09,2-.14,2.07,1.84.07,1.99.09,3.98.25,5.97.08.97-.31,1.19-1.16,1.22-7.18.26-14.36.54-21.54.83-2.68.11-5.36.24-8.04.35-.47.02-.94,0-1.62,0-.15-3.58-.31-6.99-.45-10.4-.37-9.04-.71-18.07-1.12-27.11-.04-.94.13-1.33,1.13-1.37l-.02.03ZM200.66,83.56c8.96-2.64,17.93-5.25,26.89-7.93.99-.3,1.38-.17,1.65.84.56,2.13,1.2,4.25,1.88,6.35.29.89.03,1.2-.83,1.45-5.28,1.52-10.54,3.11-15.82,4.62-1.06.3-1.31.71-.9,1.73.37.92.63,1.89.83,2.86.2.95.52,1.26,1.58.93,4.33-1.35,8.72-2.56,13.06-3.9.94-.29,1.28-.12,1.53.83.55,2.13,1.17,4.26,1.87,6.35.29.87.16,1.2-.75,1.46-4.37,1.25-8.71,2.59-13.08,3.83-1.04.29-1.3.65-.9,1.7.55,1.44.9,2.96,1.39,4.63,6.39-1.88,12.59-3.71,18.94-5.58.86,2.89,1.67,5.65,2.55,8.62-10.39,3.07-20.69,6.11-31.11,9.19-3.68-12.46-7.31-24.76-10.99-37.21.77-.26,1.48-.54,2.21-.76h0ZM152.07,109.25c6.47-3.85,12.9-7.78,19.46-11.47,1.99-1.12,4.33-1.83,6.59-2.24,4.27-.77,7.54,1.22,9.86,5.56,1.99,3.72,2.15,7.33-.86,10.92.43,0,.56.03.67,0,4.09-1.14,6.98.54,9.14,3.9,1.12,1.75,2.19,3.53,3.32,5.28.53.82,1.03,1.74,2.26,1.71.18,0,.52.31.52.47,0,.24-.2.56-.4.69-3.25,1.99-6.5,3.98-9.79,5.89-.26.15-1.01-.1-1.24-.39-1.18-1.54-2.27-3.16-3.39-4.75-.25-.35-.46-.74-.7-1.09-2.15-3.2-3.98-3.69-7.34-1.89-1.55.84-3.04,1.8-4.69,2.79,2.35,3.89,4.63,7.69,7.01,11.63-3.62,2.2-7.16,4.34-10.83,6.56-6.71-11.1-13.38-22.12-20.05-33.15.21-.19.32-.33.46-.41h0ZM139.37,119.23c2.31,2.49,4.53,4.89,6.89,7.42-2.32,2.4-4.92,5.09-7.62,7.89,6.86,6.68,13.65,13.28,20.58,20.03-2.92,3.01-5.79,5.97-8.81,9.08-6.86-6.66-13.67-13.28-20.47-19.87-2.79,2.64-5.5,5.21-8.34,7.91-2.12-2.32-4.33-4.74-6.67-7.3,7.9-8.12,16.11-16.58,24.45-25.15h-.01ZM90.69,277.66c-4.15.03-7.56-3.32-7.58-7.43-.01-4.02,3.4-7.44,7.44-7.46,4.05-.02,7.44,3.32,7.51,7.39.07,4.04-3.31,7.47-7.37,7.5h0ZM104.8,348.48c-4.17-.1-7.35-3.49-7.24-7.71.1-4.05,3.59-7.33,7.65-7.2,4.03.13,7.33,3.64,7.22,7.67-.12,4.07-3.56,7.34-7.63,7.24ZM125.24,198.48c-3.56,2.48-7.48,3.32-11.72,2.06-.56-.17-1.08-.46-1.7-.74,1.97-3.39,3.84-6.64,5.76-9.87.15-.25.64-.47.93-.42,2.49.41,4.24-.75,5.46-2.7.74-1.18,1.19-2.57,1.57-3.93.27-.95-.05-1.91-.96-2.51-.91-.6-1.88-.48-2.68.11-1.21.89-2.35,1.89-3.46,2.91-2.54,2.34-4.9,4.92-7.61,7.04-3.76,2.93-7.91,3.29-12.12.78-4.13-2.47-6.04-6.17-5.54-10.91.66-6.38,3.55-11.75,8.36-15.95,3.82-3.34,8.29-4.11,13.12-2.39.2.07.38.17.75.34-1.92,3.32-3.75,6.5-5.64,9.65-.17.29-.77.47-1.17.45-2.83-.09-6.08,3.53-5.68,6.36.17,1.18,1.3,1.97,2.51,1.51.99-.37,1.97-.94,2.74-1.66,2.31-2.15,4.48-4.46,6.79-6.62,1.07-1,2.25-1.91,3.5-2.67,6.2-3.76,14.02-.8,16.32,6.12.95,2.86.83,5.74.02,8.57-1.67,5.79-4.45,10.91-9.53,14.44l-.02.03ZM144.08,406.27c-4.17,0-7.49-3.32-7.48-7.5,0-4.05,3.41-7.44,7.45-7.43s7.41,3.41,7.41,7.48-3.3,7.44-7.38,7.45h0ZM215.65,454.88c-.99,2.3-1.88,4.64-2.88,7.15-1.59-.62-3.11-1.21-4.62-1.81-7.2-2.86-14.38-5.75-21.59-8.58-1.01-.4-1.26-.75-.81-1.87,4.38-10.83,8.69-21.69,13.01-32.54.19-.47.39-.94.63-1.52,3.93,1.57,7.66,3.06,11.5,4.6-3.62,9.08-7.18,18.02-10.81,27.15,1.41.58,2.75,1.14,4.09,1.68,3.61,1.45,7.22,2.91,10.86,4.31.81.31.95.62.61,1.42h0ZM246.46,431.38c-1.58,7.93-3.13,15.87-4.69,23.8-.72,3.69-1.45,7.38-2.17,11.08-.09.45-.21.9-.34,1.46-4.06-.79-7.99-1.56-12.15-2.38,2.44-12.45,4.86-24.81,7.32-37.38,3.01.59,5.84,1.14,8.67,1.7.85.17,1.69.38,2.55.5.79.11.96.45.8,1.23h0ZM285.07,467.2c-3.15,2.66-6.95,3.59-10.93,3.96-4.85.46-9.53-.09-13.75-2.75-3.51-2.22-5.71-5.33-6.12-9.84h8.2c.22,0,.43.05.65.04,1.69-.1,3.01-.03,4.06,1.88,1.34,2.43,6.78,2.78,8.98.98,1.27-1.04,1.29-2.77-.16-3.59-1.34-.75-2.84-1.24-4.32-1.7-3.1-.96-6.32-1.58-9.32-2.76-7.3-2.87-9.65-11.19-4.88-17.02,1.01-1.24,2.37-2.39,3.81-3.04,6.56-2.95,13.26-3.23,19.84-.12,4,1.89,6.06,5.35,6.75,9.78-.42.06-.7.13-.98.13-3.2,0-6.41,0-9.61.02-.73,0-1.08-.21-1.48-.9-.47-.8-1.3-1.73-2.11-1.9-1.61-.33-3.33-.33-4.97-.15-.61.07-1.47.94-1.58,1.56-.11.63.36,1.7.92,2.06,1.14.74,2.47,1.24,3.78,1.64,2.94.9,5.94,1.57,8.86,2.52,2.71.88,5.17,2.28,6.77,4.77,2.8,4.35,1.69,10.95-2.41,14.41v.02ZM321.26,442.65c1.58,6.34,3.14,12.68,4.77,19.01.25.99-.04,1.28-.94,1.49-3.16.74-6.32,1.48-9.44,2.37-1.23.35-1.54-.03-1.81-1.13-1.99-8.15-4.03-16.29-6.06-24.44-.11-.45-.27-.89-.44-1.43-3.12.79-6.14,1.54-9.15,2.31-1.68.43-1.68.44-2.1-1.28-.64-2.59-1.29-5.18-1.97-7.96,11.3-2.82,22.48-5.61,33.86-8.45.8,3.22,1.58,6.34,2.39,9.62-3.65.93-7.19,1.83-10.87,2.76.6,2.45,1.17,4.79,1.75,7.12h.01ZM401.46,405.99c-4.03.07-7.44-3.3-7.48-7.37-.04-4.14,3.34-7.59,7.42-7.59s7.43,3.42,7.45,7.46c.02,4.05-3.31,7.43-7.39,7.5ZM272.02,411.96c-79.5.69-143.04-64.04-142.11-142.59.91-76.81,63.92-140.23,143.02-139.07,77.1,1.12,138.8,64.16,138.65,140.95.04,76.63-61.71,140.03-139.55,140.71h0ZM415.34,203.33c-1.91-3.71-3.8-7.37-5.8-11.25,8.51-4.38,16.98-8.73,25.56-13.14-1.76-3.44-3.44-6.74-5.21-10.19,2.95-1.52,5.85-3.02,8.89-4.59.23.36.49.69.68,1.05,5.04,9.81,10.05,19.63,15.12,29.43.46.89.43,1.32-.53,1.78-2.61,1.25-5.16,2.6-7.89,3.99-1.76-3.4-3.48-6.72-5.27-10.17-8.53,4.37-16.94,8.69-25.54,13.1h-.01ZM440.33,348.07c-4.09,0-7.45-3.32-7.47-7.39-.03-4.13,3.34-7.48,7.52-7.47,4.06.01,7.44,3.41,7.42,7.45-.02,4.06-3.4,7.41-7.47,7.41ZM454.59,277.24c-4.06.03-7.46-3.32-7.51-7.37-.05-4.11,3.36-7.56,7.47-7.55,4.06,0,7.4,3.35,7.43,7.45.04,4.05-3.32,7.45-7.39,7.48h0Z"/>
    <path class="cls-1" d="M178.83,108.58c-.95-1.74-2.71-2.64-4.61-1.83-2.47,1.05-4.77,2.5-7.25,3.83,1.45,2.4,2.74,4.53,4.18,6.91,2.32-1.55,4.54-2.88,6.59-4.45,1.69-1.3,1.94-2.9,1.08-4.47h.01Z"/>
    <path class="cls-1" d="M408.41,152.02c1.71,1.55,3.35,1.52,4.8.31,1.58-1.32,2.01-3.25.73-5.12-1.45-2.12-3.23-4.01-4.94-6.09-2.05,1.81-3.92,3.47-6.01,5.32,1.88,1.95,3.54,3.89,5.42,5.58h0Z"/>
    <path class="cls-1" d="M372.78,114.7c-.09-.06-.18-.12-.27-.19-3.53,3.04-7.06,6.08-10.71,9.23,2.34,1.55,4.49,2.97,6.82,4.51,1.42-4.62,2.79-9.09,4.17-13.56h-.01Z"/>
    <path class="cls-1" d="M258.04,301.41c-3.05-3.49-8.59-5.24-16.65-5.24h-14.56c-1.34,0-2.32-.29-2.94-.87s-.93-1.45-.93-2.62v-87.28c0-1.16.31-2.04.93-2.62s1.6-.87,2.94-.87h4.49c1.34,0,2.32.29,2.94.87s.93,1.46.93,2.62v9.2c1.21-3.62,1.5-4.79,4.37-7.28,3.73-3.25,9.79-4.91,18.06-4.91h4.68v-.66c0-5.93-1.7-10.69-5.11-14.29-3.41-3.6-9.24-5.4-17.5-5.4h-21.22c-8.26,0-14.09,1.8-17.5,5.4-3.41,3.6-5.11,8.36-5.11,14.29v93.15c0,5.93,1.47,10.75,4.41,14.45,2.94,3.71,8.44,5.56,16.49,5.56h14.87c1.34,0,2.32.29,2.94.87s.93,1.46.93,2.62v14.45c0,1.17-.31,2.04-.93,2.62s-1.6.87-2.94.87h-4.49c-1.34,0-2.32-.29-2.94-.87s-.93-1.45-.93-2.62v-8.57h-27.1v12.23c0,5.93,1.73,10.69,5.19,14.29s9.32,5.4,17.58,5.4h21.06c8.26,0,14.09-1.8,17.5-5.4s5.11-8.36,5.11-14.29v-20.96c0-1.95-.17-3.76-.5-5.45-.67-3.44-2.03-6.34-4.07-8.68h0Z"/>
    <path class="cls-1" d="M278.84,207.17h-21.22c-8.26,0-14.09,1.8-17.5,5.4-2.76,2.91-4.4,6.58-4.92,11.02-.12,1.05-.19,2.14-.19,3.27v64.15h6.38c8.05,0,10.3.19,15.05,2.5,1.97.96,3.51,1.95,5.67,5.14v-28.16h12.23v85.51h27.1v-129.14c0-5.93-1.7-10.69-5.11-14.29-3.41-3.6-9.24-5.4-17.5-5.4h0ZM274.35,251.8h-12.23v-21.28c0-1.16.31-2.04.93-2.62s1.6-.87,2.94-.87h4.49c1.34,0,2.32.29,2.94.87s.93,1.46.93,2.62v21.28h0Z"/>
    <rect class="cls-1" x="313.7" y="184.94" width="27.1" height="171.06"/>
  </g>
</svg>