<?xml version="1.0" encoding="UTF-8"?>
<svg id="Layer_9" xmlns="http://www.w3.org/2000/svg" version="1.1" viewBox="0 0 600 600">
  <!-- Generator: Adobe Illustrator 29.8.2, SVG Export Plug-In . SVG Version: 2.1.1 Build 3)  -->
  <defs>
    <style>
      .st0 {
        display: none;
      }
    </style>
  </defs>
  <g id="Outer" class="st0">
    <g>
      <path d="M507.4,84.6C449.8,28.7,379.7,4.4,320.4.6,139.8-10.8,4,131.5.1,291.3c-2.1,87.1,27.9,162.1,90,223.2,56.4,55.5,125.2,84.1,204.2,85.5,169.6,2.8,301.8-132.4,304.8-292.3,1.7-87.4-28.9-162.2-91.7-223.1h0ZM494.9,109.1c5.1,6,10.2,11.9,15,18,2.3,3,3.9,6.5,3.7,10.4-.2,5.7-3.9,9.2-8.3,11.9-4,2.4-8.1,2.4-12.6-.2.3,1,.6,1.7.8,2.2,1.6,3.7,1.1,7.2-1.7,10.1-2,2.2-4.4,4.2-6.5,6.3-1.4,1.6-3.8,2.4-3.4,5.2.1.7-.8,1-1.4.2-3.5-4-7-7.9-10.5-12-.2-.3-.1-1.3.2-1.7,1.2-1.4,2.5-2.9,3.9-4.2.8-.8,1.7-1.6,2.5-2.3,4.5-4.1,4.8-6.8.9-11.4-1.3-1.7-2.9-3.3-4.5-5.2-4.7,4.1-9.2,8.2-14,12.3-3.9-4.4-7.6-8.6-11.5-13,13.3-11.9,26.6-23.6,40-35.5,2.7,3.2,5.2,6,7.6,8.9h0ZM403.4,95c12.2-9.2,24.5-18.3,36.7-27.5,1-.8,1.7-.9,2.8-.1,4,2.8,8.1,5.4,12.2,8.1.8.6,1.2,1,.9,2.1-4.3,17.4-8.5,34.8-12.7,52.1-.1.4-.2.9-.4,1.6-.9-.6-1.7-1-2.3-1.4-3.5-2.3-7.1-4.8-10.8-7.1-1.1-.7-1.3-1.3-.8-2.4.4-1.2.7-2.5,1.2-3.8s.2-2-.9-2.8c-4-2.5-8-5.2-12-7.9-1-.7-1.7-.7-2.4.1-1.1,1.1-2.3,2.1-3.5,3-.4.3-1.3.4-1.7.2-4.3-2.8-8.6-5.7-13-8.5-.1,0-.1-.2-.2-.4,2.3-1.7,4.7-3.4,7-5.2h0ZM327.4,39.1c.8-3.4,1.6-7,2.1-10.4.2-1.4.8-1.7,2.1-1.4,13.9,2.9,27.8,5.8,41.8,8.6.3,0,.6.1.9.2q3.7.8,2.8,4.4c-.6,2.8-1.1,5.4-1.7,8.2-.1.6-.2,1-.4,1.7-5.1-1-10.1-2.1-15.4-3.1-2.7,13-5.3,25.7-8,38.7-5.8-1.2-11.3-2.3-17.1-3.5.4-2.2.9-4.2,1.3-6.3,2.1-10.2,4.2-20.4,6.3-30.6.3-1.6-.1-2-1.6-2.2-4-.8-8.1-1.7-12.1-2.4-.9-.2-1.3-.6-1.1-1.8h0ZM267.4,27.1c13.6-.6,27.3-1.1,40.8-1.7.3,0,.6,0,1,.1.2,4,.3,8,.6,12.2-2.5.1-4.9.2-7.2.3-5.9.2-11.6.4-17.5.7-1.1,0-1.4.3-1.3,1.4.1,1.7.2,3.3.2,5s.3,1.4,1.4,1.3c6.4-.3,12.9-.6,19.3-.9,1.1,0,1.6.1,1.6,1.3v11c-2.3.1-5,.3-7.8.4-4.1.2-8.2.3-12.3.4-1.3,0-1.7.6-1.6,1.8.1,1.8.2,3.5.2,5.3s.6,1.6,1.7,1.4c7.6-.3,15.2-.7,22.8-1,2.8-.1,2.8-.2,2.9,2.5.1,2.8.1,5.4.3,8.2.1,1.3-.4,1.7-1.6,1.7-9.9.3-19.7.8-29.6,1.1-3.7.1-7.3.3-11.1.4h-2.2c-.2-4.9-.4-9.6-.7-14.3-.6-12.4-1-24.8-1.6-37.2-.1-1.1.1-1.7,1.6-1.7h0ZM203.2,42.4c12.3-3.7,24.6-7.2,36.9-10.9,1.3-.4,1.9-.2,2.2,1.1.8,2.9,1.7,5.9,2.5,8.8.4,1.2,0,1.7-1.1,2-7.2,2.1-14.5,4.3-21.7,6.3-1.4.4-1.8,1-1.2,2.3.6,1.2.9,2.5,1.1,3.9s.7,1.8,2.2,1.3c6-1.9,12-3.5,18-5.3,1.3-.4,1.8-.1,2.1,1.1.8,2.9,1.7,5.9,2.5,8.8.4,1.2.2,1.7-1,2-6,1.8-12,3.5-18,5.2-1.4.4-1.8.9-1.2,2.3.8,2,1.2,4.1,1.9,6.3,8.8-2.5,17.3-5.1,26.1-7.6,1.2,4,2.3,7.8,3.5,11.9-14.3,4.2-28.5,8.4-42.8,12.6-5.1-17.2-10.1-34-15.1-51.1,1-.3,2-.7,3-1h0ZM136.5,77.8c8.9-5.3,17.7-10.6,26.7-15.7,2.8-1.6,6-2.5,9.1-3.1,5.9-1.1,10.4,1.7,13.5,7.6,2.8,5.1,3,10.1-1.2,15h.9c5.7-1.6,9.6.8,12.5,5.3,1.6,2.4,3,4.9,4.5,7.2.8,1.1,1.4,2.4,3.1,2.3.2,0,.7.4.7.7,0,.3-.2.8-.6,1-4.4,2.8-9,5.4-13.4,8.1-.3.2-1.4-.1-1.7-.6-1.7-2.1-3.1-4.3-4.7-6.5-.3-.4-.7-1-1-1.6-3-4.4-5.4-5.1-10.1-2.5-2.1,1.1-4.2,2.4-6.4,3.9,3.2,5.3,6.3,10.5,9.6,16-5,3-9.9,6-14.9,9-9.2-15.3-18.4-30.4-27.6-45.6.4-.1.6-.3.8-.4h0ZM118.9,91.4c3.2,3.4,6.2,6.8,9.4,10.2-3.2,3.3-6.8,7-10.4,10.9,9.4,9.2,18.7,18.3,28.3,27.5-4,4.1-8,8.2-12.1,12.5-9.4-9.2-18.8-18.3-28.2-27.3-3.9,3.7-7.5,7.2-11.4,10.9-2.9-3.2-6-6.5-9.2-10.1,10.9-11.1,22.2-22.7,33.6-34.6h0ZM52.1,309.3c-5.7,0-10.4-4.5-10.4-10.2s4.7-10.2,10.2-10.3c5.5,0,10.2,4.5,10.3,10.2.1,5.5-4.5,10.3-10.1,10.3h0ZM71.4,406.6c-5.8-.1-10.1-4.8-10-10.6.1-5.5,5-10.1,10.5-9.9,5.5.2,10.1,5,10,10.5-.1,5.7-4.9,10.2-10.5,10ZM99.5,200.4c-4.9,3.4-10.3,4.5-16.1,2.9-.8-.2-1.4-.7-2.3-1,2.7-4.7,5.3-9.1,7.9-13.5.2-.3.9-.7,1.3-.6,3.4.6,5.9-1,7.5-3.7,1-1.7,1.7-3.5,2.1-5.4.3-1.3-.1-2.7-1.3-3.4-1.2-.8-2.5-.7-3.7.1-1.7,1.2-3.2,2.5-4.8,4-3.4,3.2-6.8,6.8-10.4,9.6-5.2,4-10.9,4.5-16.6,1.1-5.7-3.4-8.3-8.5-7.6-15,.9-8.8,4.9-16.2,11.5-22,5.2-4.5,11.4-5.7,18.1-3.3.2.1.6.2,1,.4-2.7,4.5-5.2,9-7.8,13.3-.2.4-1.1.7-1.7.7-3.9-.1-8.3,4.9-7.8,8.8.2,1.7,1.8,2.7,3.4,2.1,1.3-.6,2.7-1.3,3.8-2.3,3.2-3,6.2-6.1,9.3-9.1,1.4-1.3,3.1-2.7,4.8-3.7,8.5-5.2,19.3-1.1,22.4,8.4,1.3,3.9,1.1,7.9,0,11.8-2.2,7.9-6.1,14.9-13.1,19.7h0ZM125.5,486.1c-5.8,0-10.3-4.5-10.3-10.3s4.7-10.2,10.2-10.2,10.2,4.7,10.2,10.3c0,5.7-4.5,10.2-10.1,10.2h0ZM223.8,553c-1.3,3.2-2.5,6.4-4,9.9-2.2-.9-4.3-1.7-6.3-2.4-9.9-3.9-19.7-7.9-29.7-11.8-1.4-.6-1.8-1-1.1-2.5,6-14.9,12-29.8,17.8-44.8.2-.7.6-1.3.9-2.1,5.4,2.1,10.5,4.2,15.9,6.3-5,12.5-9.9,24.7-14.9,37.4,1.9.8,3.8,1.6,5.7,2.3,5,2,10,4,15,5.9,1,.3,1.2.8.8,1.9h0ZM266.2,520.6c-2.2,10.9-4.3,21.8-6.4,32.7-1,5.1-2,10.2-3,15.2-.1.7-.3,1.2-.4,2-5.5-1.1-11-2.1-16.7-3.3,3.3-17.1,6.7-34.1,10.1-51.4,4.1.8,8,1.6,12,2.3,1.2.2,2.3.6,3.5.7,1,.4,1.2.9,1,1.9h0ZM319.3,569.9c-4.3,3.7-9.5,5-15.1,5.4-6.7.7-13.1-.1-19-3.8-4.9-3.1-7.9-7.3-8.4-13.5h11.3c.3,0,.6.1.9,0,2.3-.1,4.1,0,5.5,2.5,1.9,3.3,9.3,3.8,12.3,1.3,1.8-1.4,1.8-3.8-.2-5-1.9-1-3.9-1.7-6-2.3-4.2-1.3-8.6-2.2-12.9-3.8-10.1-4-13.3-15.4-6.8-23.4,1.4-1.7,3.2-3.3,5.2-4.2,9-4.1,18.2-4.4,27.3-.1,5.5,2.5,8.3,7.3,9.3,13.4-.6.1-1,.2-1.3.2h-13.2c-1,0-1.4-.3-2-1.2-.7-1.1-1.8-2.3-2.9-2.7-2.2-.4-4.5-.4-6.9-.2-.9.1-2,1.3-2.2,2.1-.1.9.4,2.3,1.2,2.9,1.6,1,3.4,1.7,5.2,2.2,4,1.2,8.2,2.1,12.2,3.4,3.8,1.2,7.1,3.1,9.3,6.5,4.2,6.2,2.7,15.2-3,20.1h0ZM369,536.1c2.2,8.8,4.3,17.4,6.5,26.2.3,1.3,0,1.8-1.3,2-4.3,1-8.6,2-13,3.2-1.7.4-2.1,0-2.4-1.6-2.8-11.2-5.5-22.4-8.3-33.6-.1-.7-.3-1.2-.6-2-4.3,1.1-8.4,2.1-12.5,3.2q-2.3.6-2.9-1.8c-.9-3.5-1.8-7.1-2.7-11,15.5-3.9,30.9-7.8,46.6-11.6,1.1,4.4,2.2,8.8,3.3,13.2-5,1.3-9.9,2.5-15,3.8.6,3.5,1.3,6.8,2.2,10h0ZM479.2,485.8c-5.5.1-10.2-4.5-10.3-10.1,0-5.7,4.5-10.4,10.2-10.4s10.2,4.7,10.2,10.3c.1,5.4-4.4,10.1-10.1,10.2ZM301.3,494c-109.3,1-196.7-88-195.3-196,1.2-105.7,87.9-192.9,196.6-191.2,106,1.6,190.8,88.2,190.6,193.8.1,105.3-84.7,192.5-191.8,193.5h0ZM498.3,207.1c-2.7-5.1-5.2-10.1-8-15.5,11.8-6,23.4-12,35.1-18.1-2.4-4.8-4.8-9.3-7.2-14,4.1-2.1,8.1-4.1,12.2-6.3.3.4.7,1,.9,1.4,7,13.5,13.9,26.9,20.8,40.5.7,1.2.6,1.8-.8,2.4-3.5,1.8-7.1,3.5-10.9,5.4-2.4-4.7-4.8-9.2-7.2-14-11.5,6.1-23.2,12.1-35,18.1h0ZM532.7,406.1c-5.7,0-10.2-4.5-10.3-10.2,0-5.7,4.5-10.3,10.3-10.3s10.2,4.7,10.2,10.2c.1,5.8-4.5,10.3-10.2,10.3ZM552.3,308.7c-5.5,0-10.3-4.5-10.3-10.1-.1-5.7,4.7-10.4,10.3-10.4s10.2,4.7,10.2,10.2c0,5.7-4.5,10.3-10.2,10.3h0Z"/>
      <path d="M173.3,76.8c-1.3-2.4-3.8-3.7-6.3-2.5-3.4,1.4-6.5,3.4-10,5.2,2,3.3,3.8,6.2,5.8,9.5,3.2-2.1,6.2-4,9.1-6.1,2.2-1.7,2.5-3.9,1.4-6.1h0Z"/>
      <path d="M488.9,136.6c2.3,2.1,4.7,2.1,6.7.4,2.2-1.8,2.8-4.4,1-7-2-2.9-4.4-5.5-6.8-8.4-2.8,2.4-5.4,4.8-8.3,7.3,2.5,2.7,4.8,5.3,7.4,7.6h0Z"/>
      <path d="M439.9,85.2c-.1-.1-.2-.1-.3-.2-4.9,4.2-9.8,8.3-14.7,12.6,3.2,2.1,6.2,4.1,9.4,6.2,1.9-6.3,3.8-12.4,5.7-18.6h0Z"/>
    </g>
  </g>
  <g id="Inner">
    <path d="M282.1,342c-4.2-4.8-11.9-7.2-22.8-7.2h-20.1c-1.9,0-3.2-.4-4-1.2-.9-.8-1.3-2-1.3-3.5v-120.1c0-1.6.4-2.8,1.3-3.5s2.2-1.2,4-1.2h6.2c1.9,0,3.2.4,4,1.2.9.8,1.3,2,1.3,3.5v12.6c1.7-5,2.1-6.5,6-10,5.1-4.4,13.4-6.8,24.8-6.8h6.4v-.9c0-8.2-2.3-14.7-7-19.6-4.7-5-12.7-7.4-24.1-7.4h-29.2c-11.3,0-19.4,2.4-24.1,7.4s-7,11.5-7,19.6v128c0,8.2,2,14.7,6.1,19.8,4,5.1,11.6,7.6,22.6,7.6h20.4c1.9,0,3.2.4,4,1.2.9.8,1.3,2,1.3,3.5v20c0,1.7-.4,2.8-1.3,3.5s-2.2,1.2-4,1.2h-6.2c-1.9,0-3.2-.4-4-1.2-.9-.8-1.3-2-1.3-3.5v-11.8h-37.2v16.9c0,8.2,2.3,14.7,7.1,19.6,4.8,5,12.9,7.4,24.2,7.4h28.9c11.3,0,19.4-2.4,24.1-7.4,4.7-5,7-11.5,7-19.6v-28.8c0-2.7-.2-5.2-.7-7.5-.9-4.8-2.8-8.8-5.5-12h0Z"/>
    <path d="M310.7,212.4h-29.2c-11.3,0-19.4,2.4-24.1,7.4-3.8,4-6.1,9.1-6.8,15.2-.1,1.4-.2,3-.2,4.5v88.2h8.8c11.1,0,14.2.2,20.7,3.4,2.7,1.3,4.9,2.7,7.8,7.1v-38.7h16.9v117.5h37.2v-177.7c0-8.2-2.3-14.7-7-19.6-4.9-5-12.9-7.4-24.2-7.4h0ZM304.5,273.7h-16.9v-29.3c0-1.6.4-2.8,1.3-3.5.9-.8,2.2-1.2,4-1.2h6.2c1.9,0,3.2.4,4,1.2s1.3,2,1.3,3.5v29.3h0Z"/>
    <rect x="358.6" y="181.8" width="37.2" height="235.1"/>
  </g>
</svg>